<?xml version="1.0" encoding="UTF-8"?>
<!DOCTYPE svg PUBLIC "-//W3C//DTD SVG 1.1//EN" "http://www.w3.org/Graphics/SVG/1.1/DTD/svg11.dtd">
<!-- Creator: CorelDRAW -->
<svg xmlns="http://www.w3.org/2000/svg" xml:space="preserve" width="473.221mm" height="182.854mm" version="1.1" style="shape-rendering:geometricPrecision; text-rendering:geometricPrecision; image-rendering:optimizeQuality; fill-rule:evenodd; clip-rule:evenodd"
viewBox="0 0 16103.14 6222.3"
 xmlns:xlink="http://www.w3.org/1999/xlink"
 xmlns:xodm="http://www.corel.com/coreldraw/odm/2003">
 <defs>
  <style type="text/css">
   <![CDATA[
    .fil1 {fill:#251344;fill-rule:nonzero}
    .fil2 {fill:#390075;fill-rule:nonzero}
    .fil0 {fill:#99239B;fill-rule:nonzero}
    .fil3 {fill:#B099C8;fill-rule:nonzero}
   ]]>
  </style>
 </defs>
 <g id="Camada_x0020_1">
  <metadata id="CorelCorpID_0Corel-Layer"/>
  <path class="fil0" d="M15792.84 107.33c131.32,-17.18 237.44,-64.58 310.3,-107.33l0 0c-73,42.75 -178.98,90.15 -310.3,107.33z"/>
  <g id="_2384499842000">
   <path class="fil1" d="M4181.29 5177.97c92.87,-715.65 20.23,-2321.77 -5.88,-2825.91 -798.95,-239.12 -2590.12,-582.3 -3291.55,140.04 -449.32,462.67 -565.06,1254.01 -281.63,1924.37 329.78,779.91 1122.06,1227.2 2173.82,1227.2 1013.79,0 1120.36,-134.7 1243.53,-290.73 48.53,-61.38 99.77,-119.91 161.7,-174.97zm5704.04 -256.13c-49.79,-787.14 1.17,-2000.27 27.02,-2512.43l-5283.11 0c25.86,512.19 76.81,1725.34 27.02,2512.42 442.01,-143.59 1195.41,-229.53 2614.54,-229.53 1419.15,0 2172.54,85.95 2614.54,229.54zm480.84 -2569.78c-26.11,504.15 -98.76,2110.37 -5.87,2825.99 61.9,55.03 113.08,113.53 161.56,174.88 123.3,156.03 229.78,290.73 1243.7,290.73 1051.72,0 1844.01,-447.29 2173.79,-1227.2 283.43,-670.36 167.69,-1461.7 -281.63,-1924.37 -701.42,-722.34 -2492.59,-379.16 -3291.55,-140.04zm1399.39 3741.77c-1146.22,0 -1376.33,-182.81 -1596.85,-461.79 -163.27,-206.61 -386.93,-489.54 -2897.92,-489.54 -2511.13,0 -2734.65,282.94 -2898.02,489.54 -220.42,278.98 -450.66,461.79 -1596.72,461.79 -1241.41,0 -2184.85,-547.51 -2588.44,-1501.99 -351.84,-832.28 -198.42,-1824.57 373.21,-2413.29 1043.08,-1074.4 3524.06,-329.15 3866.67,-219.34l5686.59 0c342.74,-109.81 2823.59,-854.84 3866.67,219.34 571.67,588.73 725.09,1581.01 373.21,2413.29 -403.59,954.48 -1347.03,1501.99 -2588.41,1501.99z"/>
   <path class="fil1" d="M7723.02 3883.09l-904.46 0c-125.56,0 -227.23,-101.8 -227.23,-227.36l0 -149.36c0,-125.56 101.66,-227.36 227.23,-227.36l904.46 0c125.56,0 227.23,101.8 227.23,227.36l0 149.36c0,125.56 -101.67,227.36 -227.23,227.36z"/>
   <path class="fil2" d="M1214.49 3819.58c-0.49,128.31 18.23,666.13 346.21,1010.55 192.3,201.92 458.58,304.31 791.21,304.31 332.79,0 599.17,-102.39 791.47,-304.54 328.21,-344.9 346.57,-882.1 345.98,-1010.31l-2274.86 0zm1137.42 1374.04c-349.68,0 -630.36,-108.64 -834.31,-322.94 -390.27,-410.07 -363,-1054.96 -361.69,-1082.2l1.31 -28.08 2389.4 0 1.34 28.08c1.41,27.23 28.54,672.13 -361.73,1082.2 -203.95,214.3 -484.6,322.94 -834.31,322.94z"/>
   <path class="fil1" d="M1329.61 3930.87c13.42,197.84 71.65,571.18 312.6,823.38 170.34,178.39 409.12,268.9 709.7,268.9 300.48,0 539.36,-90.51 709.83,-268.9 240.81,-252.2 299.04,-625.55 312.5,-823.38l-2044.63 0zm1022.3 1374.17c-381.36,0 -689.18,-120.29 -914.97,-357.5 -422.8,-444.31 -393.77,-1135.39 -392.2,-1164.58 3.6,-75.02 65.53,-133.97 140.68,-133.97l2332.97 0c75.15,0 137.12,58.95 140.81,133.97 1.44,29.2 30.51,720.28 -392.3,1164.58 -225.82,237.21 -533.6,357.5 -915,357.5z"/>
   <path class="fil2" d="M1432.12 2616.61c-120.06,0 -217.77,97.71 -217.77,217.77l0 284.15c0,120.03 97.71,217.73 217.77,217.73l1839.46 0c120.16,0 217.87,-97.7 217.87,-217.73l0 -284.15c0,-120.06 -97.71,-217.77 -217.87,-217.77l-1839.46 0zm1839.46 778.86l-1839.46 0c-152.7,0 -276.95,-124.25 -276.95,-276.95l0 -284.15c0,-152.73 124.25,-276.95 276.95,-276.95l1839.46 0c152.79,0 277.08,124.22 277.08,276.95l0 284.15c0,152.69 -124.29,276.95 -277.08,276.95z"/>
   <path class="fil3" d="M1244.01 3277.34c-36.5,-43.11 -59.31,-98.1 -59.31,-158.82l0 -284.15c0,-136.63 110.8,-247.42 247.42,-247.42l1839.59 0c136.59,0 247.29,110.8 247.29,247.42l0 77.9c-9,-10.67 -18.86,-20.65 -29.56,-29.66l0 -48.25c0,-120.06 -97.71,-217.77 -217.87,-217.77l-1839.46 0c-120.06,0 -217.77,97.71 -217.77,217.77l0 284.15c0,39.83 10.8,77.28 29.66,109.59l0 49.23z"/>
   <path class="fil1" d="M1432.12 2727.89c-58.72,0 -106.48,47.76 -106.48,106.48l0 284.15c0,58.69 47.76,106.48 106.48,106.48l1839.59 0c58.69,0 106.48,-47.79 106.48,-106.48l0 -284.15c0,-58.72 -47.79,-106.48 -106.48,-106.48l-1839.59 0zm1839.59 778.97l-1839.59 0c-214.04,0 -388.37,-174.17 -388.37,-388.34l0 -284.15c0,-214.04 174.33,-388.37 388.37,-388.37l1839.59 0c214.04,0 388.21,174.33 388.21,388.37l0 284.15c0,214.17 -174.17,388.34 -388.21,388.34z"/>
   <path class="fil2" d="M11052.22 3819.58c-0.46,128.31 18.13,666.13 346.24,1010.55 192.3,201.92 458.54,304.31 791.2,304.31 332.66,0 598.9,-102.39 791.21,-304.31 327.98,-344.41 346.7,-882.24 346.21,-1010.55l-2274.86 0zm1137.45 1374.04c-349.68,0 -630.36,-108.64 -834.31,-322.94 -390.27,-410.07 -363.13,-1054.96 -361.69,-1082.2l1.31 -28.08 2389.4 0 1.31 28.08c1.31,27.23 28.57,672.13 -361.7,1082.2 -203.95,214.3 -484.63,322.94 -834.31,322.94z"/>
   <path class="fil1" d="M11167.24 3930.87c13.42,197.7 71.78,571.18 312.72,823.38 170.34,178.39 409.22,268.9 709.7,268.9 300.58,0 539.36,-90.51 709.7,-268.9 240.94,-252.2 299.17,-625.55 312.59,-823.38l-2044.72 0zm1022.43 1374.17c-381.39,0 -689.18,-120.29 -915,-357.5 -422.8,-444.31 -393.74,-1135.39 -392.3,-1164.58 3.7,-75.02 65.66,-133.97 140.81,-133.97l2332.97 0c75.15,0 136.99,58.95 140.69,133.97 1.44,29.2 30.61,720.28 -392.17,1164.58 -225.82,237.21 -533.64,357.5 -915,357.5z"/>
   <path class="fil2" d="M11269.86 2616.61c-120.03,0 -217.73,97.71 -217.73,217.77l0 284.15c0,120.03 97.7,217.73 217.73,217.73l1839.59 0c120.06,0 217.77,-97.7 217.77,-217.73l0 -284.15c0,-120.06 -97.71,-217.77 -217.77,-217.77l-1839.59 0zm1839.59 778.86l-1839.59 0c-152.66,0 -276.95,-124.25 -276.95,-276.95l0 -284.15c0,-152.73 124.28,-276.95 276.95,-276.95l1839.59 0c152.69,0 276.95,124.22 276.95,276.95l0 284.15c0,152.69 -124.25,276.95 -276.95,276.95z"/>
   <path class="fil1" d="M11269.86 2727.89c-58.69,0 -106.48,47.76 -106.48,106.48l0 284.15c0,58.69 47.79,106.48 106.48,106.48l1839.59 0c58.72,0 106.48,-47.79 106.48,-106.48l0 -284.15c0,-58.72 -47.76,-106.48 -106.48,-106.48l-1839.59 0zm1839.59 778.97l-1839.59 0c-214.03,0 -388.2,-174.17 -388.2,-388.34l0 -284.15c0,-214.17 174.17,-388.37 388.2,-388.37l1839.59 0c214.03,0 388.37,174.2 388.37,388.37l0 284.15c0,214.17 -174.33,388.34 -388.37,388.34z"/>
   <path class="fil1" d="M4391.36 5294.34l-221.73 -36.6c4.09,-25.1 8.05,-51.75 11.65,-79.73 28.44,-219.08 41.31,-521.59 44.78,-850.39 84.29,-103.86 189.91,-211.65 451.02,-303.23 1.31,318.85 -4.09,632.26 -20.78,897.45 -5.5,87.49 -12.34,169.72 -20.52,245.13 -105.36,40.23 -183.3,83.17 -244.41,127.36z"/>
   <path class="fil1" d="M10150.22 5294.34c-61.11,-44.19 -139.01,-87.13 -244.41,-127.36 -8.18,-75.41 -15.02,-157.64 -20.52,-245.13 -16.69,-265.2 -22.09,-578.61 -20.78,-897.45 261.11,91.59 366.73,199.37 451.02,303.23 3.47,328.8 16.33,631.31 44.78,850.39 3.7,27.99 7.56,54.63 11.65,79.73l-221.73 36.6z"/>
   <path class="fil1" d="M7723.02 3883.09l-904.46 0c-72.24,0 -136.72,-33.75 -178.26,-86.32 193.15,-4.45 403,-6.84 630.49,-6.84 227.49,0 437.34,2.39 630.49,6.84 -41.54,52.57 -106.02,86.32 -178.26,86.32z"/>
   <path class="fil1" d="M2351.9 5305.04c-381.36,0 -689.18,-120.29 -914.97,-357.5 -198.1,-208.31 -297.01,-470.72 -345.98,-693.76 110.57,80.91 232.17,153.78 365.29,217.18 44.91,100.59 105.17,198.78 185.95,283.3 170.34,178.39 409.12,268.9 709.7,268.9 300.48,0 539.36,-90.51 709.83,-268.9 5.53,-5.89 11.16,-11.88 16.56,-17.87 139.5,-4.94 259.31,-13.32 363.04,-24.88 -47.3,82.75 -104.68,162.68 -174.43,236.03 -225.82,237.21 -533.6,357.5 -915,357.5z"/>
   <path class="fil1" d="M3888.36 2184.31l1127.48 0 0 -573.81 -1127.48 0 0 573.81zm1475.15 -573.83l-1837.92 0c-147.16,0 -266.37,-119.31 -266.37,-266.37l0 -101.44c0,-147.07 119.21,-266.38 266.37,-266.38l1837.92 0c147.16,0 266.37,119.31 266.37,266.38l0 101.44c0,147.07 -119.21,266.37 -266.37,266.37z"/>
   <path class="fil1" d="M9178.07 1610.48l1837.92 0c147.16,0 266.38,-119.31 266.38,-266.37l0 -101.44c0,-147.07 -119.21,-266.38 -266.38,-266.38l-1837.92 0c-147.03,0 -266.38,119.31 -266.38,266.38l0 101.44c0,147.07 119.34,266.37 266.38,266.37zm347.65 573.83l1127.48 0 0 -573.81 -1127.48 0 0 573.81z"/>
   <path class="fil2" d="M13168.63 6222.3l0 0c0,0 86.09,-105.4 204.94,-286.08l0 0c-118.36,180.06 -204.09,285.1 -204.94,286.08z"/>
  </g>
 </g>
</svg>
