<?xml version="1.0" encoding="UTF-8"?>
<!DOCTYPE svg PUBLIC "-//W3C//DTD SVG 1.1//EN" "http://www.w3.org/Graphics/SVG/1.1/DTD/svg11.dtd">
<!-- Creator: CorelDRAW -->
<svg xmlns="http://www.w3.org/2000/svg" xml:space="preserve" width="427.332mm" height="162.885mm" version="1.1" style="shape-rendering:geometricPrecision; text-rendering:geometricPrecision; image-rendering:optimizeQuality; fill-rule:evenodd; clip-rule:evenodd"
viewBox="0 0 12190.34 4646.55"
 xmlns:xlink="http://www.w3.org/1999/xlink"
 xmlns:xodm="http://www.corel.com/coreldraw/odm/2003">
 <defs>
  <style type="text/css">
   <![CDATA[
    .fil1 {fill:#251344;fill-rule:nonzero}
    .fil0 {fill:#390075;fill-rule:nonzero}
    .fil3 {fill:#99239B;fill-rule:nonzero}
    .fil2 {fill:#B099C8;fill-rule:nonzero}
   ]]>
  </style>
 </defs>
 <g id="Camada_x0020_1">
  <metadata id="CorelCorpID_0Corel-Layer"/>
  <path class="fil0" d="M6095.16 3279.11c2208.44,0 2414.84,261.03 2596.9,491.5 129.71,164.14 241.83,305.93 1171.1,305.93 950.68,0 1669.93,-411.41 1973.25,-1128.82 262.57,-620.82 151.77,-1357.36 -269.4,-1791.13 -827.53,-852.25 -3028.23,-127.79 -3050.45,-120.33l-7.85 1.29 -4831.11 0 -3.92 -1.29c-22.03,-7.46 -2222.76,-731.93 -3050.37,120.33 -421.15,433.77 -531.95,1170.31 -269.41,1791.13 303.32,717.41 1022.57,1128.82 1973.28,1128.82 929.25,0 1041.37,-141.78 1171.08,-305.93 182.06,-230.36 388.46,-491.5 2596.9,-491.5zm3768.01 847.04c-953.34,0 -1072.29,-150.45 -1210.04,-324.75 -175.12,-221.6 -373.56,-472.68 -2557.96,-472.68 -2184.4,0 -2382.84,251.07 -2557.94,472.68 -137.77,174.3 -256.73,324.75 -1210.04,324.75 -971.64,0 -1707.49,-422.46 -2018.96,-1159.11 -270.09,-638.74 -155.09,-1397.43 279.59,-1845.05 839.58,-864.76 2961.68,-179.32 3097.84,-134.15l4819.03 0c136.07,-45.17 2258.27,-730.61 3097.87,134.15 434.65,447.63 549.64,1206.31 279.56,1845.05 -311.47,736.65 -1047.32,1159.11 -2018.94,1159.11z"/>
  <path class="fil1" d="M6095.16 3115.16c2123.7,0 2469.2,229.56 2725.4,553.82 103.36,130.8 192.63,243.72 1042.6,243.72 881.67,0 1545.85,-374.97 1822.3,-1028.77 237.6,-561.97 140.57,-1225.35 -236.09,-1613.21 -626.86,-645.55 -2291.99,-275.94 -2880.71,-79.08l-29.17 9.77 -4888.67 0 -29.17 -9.77c-588.72,-196.85 -2253.85,-566.47 -2880.71,79.08 -376.67,387.86 -473.69,1051.25 -236.09,1613.21 276.46,653.81 940.64,1028.77 1822.33,1028.77 849.86,0 939.21,-112.92 1042.46,-243.72 256.31,-324.26 601.81,-553.82 2725.51,-553.82zm3768.01 1174.92c-960.89,0 -1153.79,-153.25 -1338.65,-387.12 -136.87,-173.2 -324.36,-410.39 -2429.35,-410.39 -2105.1,0 -2292.48,237.19 -2429.44,410.39 -184.78,233.87 -377.79,387.12 -1338.54,387.12 -1040.68,0 -1831.58,-458.98 -2169.91,-1259.13 -294.95,-697.71 -166.34,-1529.55 312.87,-2023.08 874.42,-900.68 2954.25,-275.93 3241.46,-183.87l4767.12 0c287.32,-92.06 2367.04,-716.62 3241.46,183.87 479.24,493.53 607.85,1325.37 312.87,2023.08 -338.33,800.15 -1129.23,1259.13 -2169.88,1259.13z"/>
  <path class="fil1" d="M3867.79 3650.64l-372.36 -61.47c109.21,-661.57 -1.1,-2546.38 -2.2,-2565.32l376.67 -22.34c4.75,79.11 113.93,1946.09 -2.11,2649.12z"/>
  <path class="fil1" d="M8322.53 3650.64c-116.04,-703.04 -6.86,-2570.01 -2.11,-2649.12l376.67 22.34c-1.1,18.93 -111.4,1903.75 -2.19,2565.32l-372.36 61.47z"/>
  <path class="fil1" d="M6474.27 2436.79l-758.22 0c-105.26,0 -190.49,-85.34 -190.49,-190.6l0 -125.21c0,-105.26 85.23,-190.59 190.49,-190.59l758.22 0c105.26,0 190.49,85.34 190.49,190.59l0 125.21c0,105.26 -85.23,190.6 -190.49,190.6z"/>
  <path class="fil0" d="M1018.11 2383.56c-0.41,107.56 15.28,558.43 290.23,847.15 161.21,169.27 384.43,255.11 663.28,255.11 278.98,0 502.29,-85.83 663.49,-255.3 275.14,-289.13 290.53,-739.48 290.04,-846.95l-1907.04 0zm953.5 1151.87c-293.14,0 -528.44,-91.07 -699.41,-270.72 -327.17,-343.77 -304.31,-884.38 -303.21,-907.21l1.1 -23.54 2003.05 0 1.12 23.54c1.18,22.83 23.93,563.45 -303.24,907.21 -170.98,179.65 -406.24,270.72 -699.41,270.72z"/>
  <path class="fil1" d="M1114.62 2476.85c11.25,165.85 60.07,478.82 262.05,690.25 142.8,149.55 342.97,225.42 594.95,225.42 251.9,0 452.15,-75.87 595.06,-225.42 201.87,-211.42 250.69,-524.4 261.97,-690.25l-1714.03 0zm857 1151.98c-319.7,0 -577.74,-100.84 -767.02,-299.7 -354.44,-372.47 -330.1,-951.8 -328.78,-976.28 3.02,-62.89 54.93,-112.31 117.93,-112.31l1955.74 0c63,0 114.95,49.42 118.05,112.31 1.21,24.48 25.57,603.81 -328.87,976.28 -189.31,198.86 -447.32,299.7 -767.05,299.7z"/>
  <path class="fil0" d="M1200.56 1375.09c-100.65,0 -182.56,81.91 -182.56,182.56l0 238.21c0,100.62 81.91,182.53 182.56,182.53l1542.03 0c100.73,0 182.64,-81.91 182.64,-182.53l0 -238.21c0,-100.65 -81.91,-182.56 -182.64,-182.56l-1542.03 0zm1542.03 652.93l-1542.03 0c-128.01,0 -232.17,-104.16 -232.17,-232.17l0 -238.21c0,-128.03 104.16,-232.17 232.17,-232.17l1542.03 0c128.09,0 232.28,104.13 232.28,232.17l0 238.21c0,128 -104.19,232.17 -232.28,232.17z"/>
  <path class="fil2" d="M1042.86 1928.99c-30.59,-36.14 -49.72,-82.24 -49.72,-133.14l0 -238.21c0,-114.53 92.88,-207.42 207.42,-207.42l1542.14 0c114.51,0 207.31,92.88 207.31,207.42l0 65.31c-7.55,-8.94 -15.81,-17.31 -24.78,-24.86l0 -40.45c0,-100.65 -81.91,-182.56 -182.64,-182.56l-1542.03 0c-100.65,0 -182.56,81.91 -182.56,182.56l0 238.21c0,33.39 9.06,64.78 24.86,91.87l0 41.27z"/>
  <path class="fil1" d="M1200.56 1468.38c-49.23,0 -89.26,40.04 -89.26,89.26l0 238.21c0,49.2 40.03,89.26 89.26,89.26l1542.14 0c49.2,0 89.26,-40.06 89.26,-89.26l0 -238.21c0,-49.23 -40.06,-89.26 -89.26,-89.26l-1542.14 0zm1542.14 653.01l-1542.14 0c-179.43,0 -325.57,-146.01 -325.57,-325.55l0 -238.21c0,-179.43 146.14,-325.57 325.57,-325.57l1542.14 0c179.43,0 325.44,146.14 325.44,325.57l0 238.21c0,179.54 -146.01,325.55 -325.44,325.55z"/>
  <path class="fil0" d="M9265.17 2383.56c-0.39,107.56 15.2,558.43 290.26,847.15 161.21,169.27 384.4,255.11 663.27,255.11 278.87,0 502.07,-85.83 663.28,-255.11 274.95,-288.72 290.64,-739.59 290.23,-847.15l-1907.04 0zm953.53 1151.87c-293.14,0 -528.44,-91.07 -699.41,-270.72 -327.16,-343.77 -304.42,-884.38 -303.21,-907.21l1.1 -23.54 2003.05 0 1.1 23.54c1.1,22.83 23.95,563.45 -303.21,907.21 -170.98,179.65 -406.27,270.72 -699.41,270.72z"/>
  <path class="fil1" d="M9361.59 2476.85c11.25,165.74 60.17,478.82 262.16,690.25 142.8,149.55 343.05,225.42 594.95,225.42 251.98,0 452.15,-75.87 594.95,-225.42 201.98,-211.42 250.8,-524.4 262.05,-690.25l-1714.11 0zm857.11 1151.98c-319.73,0 -577.74,-100.84 -767.05,-299.7 -354.44,-372.47 -330.07,-951.8 -328.87,-976.28 3.1,-62.89 55.04,-112.31 118.05,-112.31l1955.74 0c63,0 114.84,49.42 117.94,112.31 1.21,24.48 25.66,603.81 -328.76,976.28 -189.31,198.86 -447.35,299.7 -767.05,299.7z"/>
  <path class="fil0" d="M9447.62 1375.09c-100.62,0 -182.53,81.91 -182.53,182.56l0 238.21c0,100.62 81.91,182.53 182.53,182.53l1542.15 0c100.65,0 182.56,-81.91 182.56,-182.53l0 -238.21c0,-100.65 -81.91,-182.56 -182.56,-182.56l-1542.15 0zm1542.15 652.93l-1542.15 0c-127.98,0 -232.17,-104.16 -232.17,-232.17l0 -238.21c0,-128.03 104.19,-232.17 232.17,-232.17l1542.15 0c128,0 232.17,104.13 232.17,232.17l0 238.21c0,128 -104.16,232.17 -232.17,232.17z"/>
  <path class="fil1" d="M9447.62 1468.38c-49.2,0 -89.26,40.04 -89.26,89.26l0 238.21c0,49.2 40.06,89.26 89.26,89.26l1542.15 0c49.23,0 89.26,-40.06 89.26,-89.26l0 -238.21c0,-49.23 -40.03,-89.26 -89.26,-89.26l-1542.15 0zm1542.15 653.01l-1542.15 0c-179.43,0 -325.43,-146.01 -325.43,-325.55l0 -238.21c0,-179.54 146.01,-325.57 325.43,-325.57l1542.15 0c179.43,0 325.57,146.04 325.57,325.57l0 238.21c0,179.54 -146.14,325.55 -325.57,325.55z"/>
  <path class="fil1" d="M3681.31 3619.86l-185.88 -30.68c3.43,-21.04 6.75,-43.38 9.77,-66.84 23.85,-183.66 34.63,-437.25 37.54,-712.89 70.66,-87.07 159.21,-177.43 378.09,-254.2 1.1,267.29 -3.43,530.03 -17.42,752.34 -4.61,73.35 -10.34,142.28 -17.2,205.5 -88.33,33.72 -153.66,69.72 -204.89,106.77z"/>
  <path class="fil1" d="M8509.01 3619.86c-51.23,-37.04 -116.54,-73.05 -204.89,-106.77 -6.86,-63.22 -12.59,-132.15 -17.2,-205.5 -14,-222.32 -18.52,-485.05 -17.42,-752.34 218.89,76.78 307.43,167.13 378.09,254.2 2.91,275.63 13.69,529.23 37.54,712.89 3.1,23.46 6.34,45.8 9.77,66.84l-185.88 30.68z"/>
  <path class="fil1" d="M6474.27 2436.79l-758.22 0c-60.56,0 -114.62,-28.29 -149.44,-72.36 161.92,-3.73 337.84,-5.73 528.54,-5.73 190.71,0 366.62,2 528.55,5.73 -34.82,44.07 -88.88,72.36 -149.44,72.36z"/>
  <path class="fil1" d="M1971.62 3628.83c-319.7,0 -577.74,-100.84 -767.02,-299.7 -166.07,-174.63 -248.99,-394.61 -290.04,-581.59 92.69,67.83 194.63,128.91 306.23,182.06 37.65,84.32 88.16,166.64 155.89,237.49 142.8,149.55 342.97,225.42 594.95,225.42 251.9,0 452.15,-75.87 595.06,-225.42 4.64,-4.94 9.36,-9.96 13.88,-14.98 116.95,-4.14 217.38,-11.17 304.34,-20.86 -39.65,69.37 -87.75,136.38 -146.23,197.87 -189.31,198.86 -447.32,299.7 -767.05,299.7z"/>
  <polygon class="fil1" points="3259.64,1012.69 4204.82,1012.69 4204.82,531.66 3259.64,531.66 "/>
  <path class="fil1" d="M4496.27 531.64l-1540.74 0c-123.37,0 -223.3,-100.02 -223.3,-223.3l0 -85.03c0,-123.29 99.93,-223.31 223.3,-223.31l1540.74 0c123.37,0 223.3,100.02 223.3,223.31l0 85.03c0,123.29 -99.93,223.3 -223.3,223.3z"/>
  <polygon class="fil1" points="7985.49,1012.69 8930.66,1012.69 8930.66,531.66 7985.49,531.66 "/>
  <path class="fil1" d="M7694.05 531.64l1540.74 0c123.37,0 223.31,-100.02 223.31,-223.3l0 -85.03c0,-123.29 -99.94,-223.31 -223.31,-223.31l-1540.74 0c-123.26,0 -223.31,100.02 -223.31,223.31l0 85.03c0,123.29 100.05,223.3 223.31,223.3z"/>
  <path class="fil3" d="M11707.92 4646.55c110.09,-14.41 199.05,-54.14 260.13,-89.98l0 0c-61.19,35.84 -150.04,75.57 -260.13,89.98z"/>
  <path class="fil0" d="M11039.37 4397.78l0 0c0,0 72.17,-88.36 171.8,-239.83l0 0c-99.22,150.95 -171.09,239 -171.8,239.83z"/>
 </g>
</svg>
