<?xml version="1.0" encoding="UTF-8"?>
<!DOCTYPE svg PUBLIC "-//W3C//DTD SVG 1.1//EN" "http://www.w3.org/Graphics/SVG/1.1/DTD/svg11.dtd">
<!-- Creator: CorelDRAW -->
<svg xmlns="http://www.w3.org/2000/svg" xml:space="preserve" width="621.016mm" height="259.515mm" version="1.1" style="shape-rendering:geometricPrecision; text-rendering:geometricPrecision; image-rendering:optimizeQuality; fill-rule:evenodd; clip-rule:evenodd"
viewBox="0 0 44856.88 18745.15"
 xmlns:xlink="http://www.w3.org/1999/xlink"
 xmlns:xodm="http://www.corel.com/coreldraw/odm/2003">
 <defs>
  <style type="text/css">
   <![CDATA[
    .fil0 {fill:#FEFEFE;fill-rule:nonzero}
   ]]>
  </style>
 </defs>
 <g id="Camada_x0020_1">
  <metadata id="CorelCorpID_0Corel-Layer"/>
  <path class="fil0" d="M17077.36 13876.96c1382.58,0 2278.69,-563.27 2944.38,-1254.56 153.61,486.46 307.24,921.72 332.84,921.72l3328.43 0 0 -9140.36c0,-3226.01 -1484.99,-4403.76 -5095.05,-4403.76 -2099.47,0 -3712.47,614.48 -5197.45,1689.82l1510.59 2790.75c947.32,-588.87 2048.25,-1126.54 3277.21,-1126.54 1049.73,0 1280.16,460.86 1280.16,1689.81l0 256.04 -691.28 0c-3763.68,0 -5581.51,1203.35 -5581.51,4275.73 0,2560.32 1024.13,4301.35 3891.69,4301.35zm1280.17 -2816.36c-793.7,0 -1049.73,-409.65 -1049.73,-1536.2 0,-1177.75 281.64,-1689.81 2150.67,-1715.42l0 2918.77c-307.24,204.83 -614.48,332.84 -1100.94,332.84zm11239.82 2790.75c1024.13,0 1894.65,-281.63 2304.29,-435.25l-384.05 -2688.34 -230.43 0c-921.71,0 -1024.13,-51.2 -1024.13,-1203.35l0 -9208.46 -4224.53 0 0 8978.03c0,3072.38 358.44,4557.37 3558.84,4557.37z"/>
  <path class="fil0" d="M10464.67 18740.87c-4218.87,-410.03 -5523.87,-1358.41 -6624.18,-5171.14l-3840.49 -13236.88 4429.36 0 1228.95 6247.19c307.24,1305.76 384.05,2125.07 486.46,2944.37l25.61 0c76.8,-819.3 230.43,-1689.81 537.66,-2841.95l1356.98 -6349.61 4403.76 0 -3942.9 13211.27 -998.53 0c665.69,1100.94 1356.97,1484.99 3763.66,1766.62l20608.61 -6.45 0 3437.29 -21427.91 0 -7.22 0 0.17 -0.71z"/>
  <path class="fil0" d="M33489.04 18745.15l4224.54 0 0 -5969.13c537.67,486.46 1484.99,1100.94 2841.96,1100.94 2893.17,0 4301.34,-1510.59 4301.34,-7296.92 0,-5069.44 -1482.68,-6247.19 -4375.85,-6247.19 -1305.76,0 -2255.39,179.23 -3228.31,1177.75l-281.64 -1177.75 -3482.04 0 0 18412.31zm5427.89 -8196.61c-614.48,0 -972.93,-256.03 -1203.35,-460.86l0 -6324c281.64,-230.43 665.69,-435.25 1331.37,-435.25 1126.54,0 1280.16,614.47 1280.16,3456.43 0,2995.58 -153.62,3763.68 -1408.17,3763.68z"/>
 </g>
</svg>
