<?xml version="1.0" encoding="UTF-8"?>
<!DOCTYPE svg PUBLIC "-//W3C//DTD SVG 1.1//EN" "http://www.w3.org/Graphics/SVG/1.1/DTD/svg11.dtd">
<!-- Creator: CorelDRAW -->
<svg xmlns="http://www.w3.org/2000/svg" xml:space="preserve" width="405.32mm" height="406.692mm" version="1.1" style="shape-rendering:geometricPrecision; text-rendering:geometricPrecision; image-rendering:optimizeQuality; fill-rule:evenodd; clip-rule:evenodd"
viewBox="0 0 43863.32 44011.75"
 xmlns:xlink="http://www.w3.org/1999/xlink"
 xmlns:xodm="http://www.corel.com/coreldraw/odm/2003">
 <defs>
  <style type="text/css">
   <![CDATA[
    .fil3 {fill:#371A45;fill-rule:nonzero}
    .fil1 {fill:#E5C787;fill-rule:nonzero}
    .fil0 {fill:#FBE5AB;fill-rule:nonzero}
    .fil2 {fill:#FFEDC7;fill-rule:nonzero}
   ]]>
  </style>
 </defs>
 <g id="Camada_x0020_1">
  <metadata id="CorelCorpID_0Corel-Layer"/>
  <path class="fil0" d="M34496.65 39905.16c-9926.59,6939.45 -23597.5,4518.59 -30538.61,-5408.19 -1203.35,-1720.7 -2124.17,-3553.52 -2773.11,-5444.84 -283.66,-822.67 -515.49,-1656.9 -695.99,-2496.44 -1738.61,-8080.96 1203.66,-16762.56 8122.18,-22043.34 246.71,-190.5 498.62,-373.71 755.74,-552.75 745.32,-521.53 1511.47,-988.91 2294.27,-1403.22 2720.03,-1449.01 5643.04,-2267.21 8579.59,-2492.05 190.49,-14.57 379.95,-26.03 570.44,-36.43 3132.24,-158.23 6267.61,358.09 9182.29,1507.3 3870.28,1523.96 7349.17,4166.96 9912.01,7831.13 1413.62,2022.59 2438.96,4200.28 3090.6,6445.62 2550.35,8773.19 -595.42,18567.37 -8499.42,24093.2z"/>
  <path class="fil1" d="M21863.57 43024.19c-984.75,0 -1968.46,-66.41 -2942.78,-197.78 -189.46,-28.21 -378.92,-59.13 -568.37,-92.75 -5567.05,-986.1 -10417.91,-4080.77 -13656.75,-8714.7 -1783.68,-2551.39 -2961.84,-5401.64 -3495.54,-8377.52 594.49,1421.63 1349.19,2801.73 2268.56,4116.57 4233.68,6055.26 10971.81,9317.52 17836.93,9366.45 55.17,579.91 217.56,1140.68 495.5,1664.49 -74.95,41.63 -106.18,134.39 -69.75,213.4 104.1,221.83 231.09,434.08 371.62,637.58 141.57,201.95 300.84,393.59 474.68,571.48 277.93,285.54 592.3,536.41 929.57,751.36 -547.54,40.81 -1095.09,61.43 -1643.67,61.43zm15645.61 -6671.82c17.69,-122.94 30.19,-247.02 40.59,-371.1 36.44,-504.34 0,-1016.6 -123.87,-1506.06 -122.84,-489.77 -333.11,-952.89 -611.05,-1360.64 -38.52,-56.52 -102.01,-89 -168.64,-89 -9.36,0 -17.69,0.83 -27.07,1.98 3635.03,-3476.08 5862.68,-8004.15 6536.18,-12763.41 132.21,1755.06 44.77,3539.27 -270.64,5318.47 -725.55,4097.11 -2593.03,7805.63 -5375.51,10769.76z"/>
  <path class="fil2" d="M914.59 20584.76c50.39,-793.21 145.84,-1589.55 286.68,-2383.8 985.79,-5567.05 4080.77,-10416.88 8714.17,-13656.33 3596.51,-2514.96 7784.29,-3824.49 12082.42,-3824.49 1239.78,0 2489.96,109.3 3736,329.98 3235.3,572.53 6229.1,1858.12 8804.43,3743.29 -3501.78,-2105.86 -7507.39,-3201.99 -11550.48,-3201.99 -1177.32,0 -2359.85,93.69 -3531.97,281.06l1.04 4.17c446.58,1227.29 -735.95,2783.53 -2640.91,3476.8 -616.25,224.85 -1232.49,331.03 -1798.78,331.03 -1186.68,0 -2156.87,-466.35 -2458.74,-1296 -20.82,-58.3 -38.52,-116.58 -52.04,-174.88 -785.93,417.42 -1555.19,887.94 -2302.6,1411.54 -5219.88,3649.6 -8402.72,9125.05 -9289.2,14959.62z"/>
  <path class="fil1" d="M14523.77 12213.36c-2211,0 -3824.48,-1073.23 -3734.96,-2606.56 99.93,-1725.91 2322.38,-3382.07 4962.25,-3697.48 295.63,-35.4 583.98,-52.05 862.96,-52.05 2211,0 3824.49,1073.23 3734.96,2605.52 -99.93,1726.96 -2322.38,3382.08 -4962.25,3697.49 -294.59,35.39 -583.98,53.08 -862.96,53.08z"/>
  <path class="fil0" d="M15415.87 12001.02c-2290.11,351.84 -3997.28,-264.41 -3813.03,-1377.19 184.24,-1113.82 2190.18,-2301.56 4480.28,-2653.41 2290.11,-351.84 3998.33,264.41 3813.04,1378.23 -183.21,1112.78 -2190.18,2300.52 -4480.29,2652.37z"/>
  <path class="fil3" d="M19404.83 6343.4c200.91,109.3 390.36,245.67 562.12,408.06 84.31,82.24 164.47,170.72 238.37,265.44 72.86,95.77 139.49,197.78 197.78,305 58.3,107.22 106.18,220.68 145.74,337.27l27.07 88.48c8.32,30.18 15.62,60.38 22.9,90.56l20.82 89.53c6.24,31.22 10.41,61.41 14.57,91.6 37.48,245.67 33.32,496.54 -5.19,739.08 -40.6,243.59 -114.51,476.76 -210.28,697.45 -97.85,220.68 -216.51,427.83 -350.8,622.49 -134.28,195.7 -286.26,373.71 -446.58,543.39 -79.11,86.4 -163.42,165.51 -247.75,245.67l-130.12 115.55c-42.67,38.52 -88.48,73.9 -132.2,111.38 -179.04,144.69 -364.33,283.14 -557.95,405.97 -95.76,64.54 -195.69,120.75 -293.54,180.09 -99.93,55.17 -198.83,113.47 -301.88,164.47 -404.93,211.32 -830.69,379.96 -1265.81,515.27 -109.3,34.36 -219.64,63.5 -328.94,93.69 -111.38,27.07 -220.68,57.26 -333.11,79.12 -221.72,51 -448.65,86.4 -674.54,116.58 -454.9,54.13 -915,75.99 -1378.23,41.64 -461.14,-32.27 -925.41,-112.43 -1376.14,-261.28 -449.69,-150.94 -893.14,-365.38 -1278.29,-689.12 -192.59,-161.34 -369.55,-348.72 -515.28,-564.2 -144.69,-215.47 -258.16,-456.98 -326.85,-709.94 -69.75,-251.91 -95.77,-516.31 -78.08,-773.43 16.67,-256.08 73.91,-505.9 158.23,-738.04 84.32,-232.13 197.79,-448.65 325.83,-649.55 33.31,-49.96 65.58,-99.94 99.93,-147.82l105.13 -142.61 112.43 -135.33c37.48,-45.8 78.07,-87.44 116.58,-131.16 158.23,-169.68 326.86,-327.9 503.82,-472.59 178.01,-143.66 362.25,-276.9 552.75,-398.69 191.54,-119.71 386.2,-230.05 587.1,-329.99 201.95,-97.84 404.93,-190.49 614.17,-266.48 414.29,-159.27 843.18,-274.81 1275.18,-352.89 75.98,-13.53 148.86,36.44 162.38,112.43 12.5,67.66 -26.03,133.24 -89.52,156.14l-3.13 1.05c-199.86,72.86 -398.69,142.61 -592.3,227.96 -97.85,39.55 -192.58,84.32 -288.35,126.99 -47.88,21.86 -94.72,45.81 -141.56,68.71 -46.85,22.9 -94.73,45.8 -140.53,70.79l-138.44 72.86 -135.33 77.03 -68.71 38.52 -66.62 40.6c-43.72,27.07 -88.48,53.08 -132.2,81.2 -174.88,112.42 -345.6,229 -507.99,353.92 -161.34,126.99 -317.49,259.21 -463.22,399.73 -144.7,141.57 -281.07,288.35 -404.93,443.45 -247.76,309.17 -443.45,651.64 -548.59,1002.44 -53.08,175.92 -82.24,352.89 -83.27,525.68 -2.08,173.84 22.9,343.52 73.91,503.82 103.06,320.62 315.4,601.68 597.51,823.4 284.18,221.72 630.82,387.24 998.28,501.74 369.55,111.39 760.94,181.14 1158.59,204.04 397.65,23.94 800.49,10.41 1201.26,-37.48 399.73,-51 799.46,-128.03 1188.77,-242.54 97.85,-28.12 194.66,-56.22 290.44,-88.49 97.84,-30.18 192.58,-66.62 287.3,-100.97 189.46,-71.82 376.83,-149.89 557.95,-236.3 92.65,-41.64 181.13,-89.53 271.69,-135.33 88.48,-48.93 178,-94.72 263.36,-147.82 173.83,-102.02 341.43,-212.36 502.78,-331.02 161.34,-117.63 314.36,-244.63 459.05,-379.96 143.66,-134.28 280.03,-277.94 400.78,-429.91 121.79,-151.98 230.05,-312.29 319.57,-479.89 90.56,-167.6 161.34,-342.48 207.15,-521.52 46.84,-179.05 67.66,-362.25 58.29,-545.47l-4.16 -68.7 -8.33 -68.71c-3.12,-22.9 -5.21,-45.8 -9.37,-68.71l-13.53 -67.66c-19.78,-89.52 -45.8,-179.05 -79.11,-266.49 -35.4,-87.44 -77.04,-171.75 -124.92,-255.03 -47.89,-82.24 -104.1,-161.35 -165.52,-237.33 -60.38,-77.04 -128.03,-148.87 -198.82,-219.65 -71.82,-68.7 -148.86,-134.28 -227.96,-198.82l-3.13 -2.08c-74.95,-60.38 -86.4,-169.68 -27.07,-244.63 54.13,-66.62 146.78,-82.24 218.6,-42.68z"/>
  <path class="fil3" d="M17140.74 13676.96c-157.18,128.03 -328.94,240.46 -506.94,340.39 -179.05,99.93 -366.42,186.33 -558.99,261.28 -384.12,147.82 -791.13,242.54 -1202.31,289.39 -411.18,48.93 -827.56,46.84 -1238.74,5.21 -411.18,-44.77 -819.24,-129.08 -1213.76,-256.08 -393.48,-126.99 -776.56,-293.55 -1136.73,-502.78 -90.56,-52.05 -179.04,-107.22 -266.48,-164.47 -86.4,-58.3 -171.76,-118.67 -255.04,-181.13 -168.64,-124.92 -326.86,-265.45 -476.76,-413.27 -296.67,-298.75 -554.83,-644.35 -729.71,-1034.71 -175.92,-387.23 -263.36,-821.32 -218.6,-1234.57 8.32,-78.07 78.07,-134.29 155.1,-125.96 61.41,7.28 109.3,52.04 122.84,108.26l1.04 2.08c169.68,719.3 627.69,1278.29 1185.65,1706.14 557.95,430.95 1214.8,740.12 1898.71,950.39 684.95,208.19 1402.17,316.45 2120.43,315.41 360.17,-1.04 720.35,-30.19 1079.48,-91.61 179.04,-30.18 358.09,-68.7 536.09,-115.55 179.04,-45.8 356.01,-100.97 536.09,-160.3l2.08 -1.05c92.65,-31.22 191.54,18.74 222.77,110.35 23.94,71.82 -1.05,147.82 -56.22,192.58z"/>
  <path class="fil1" d="M7850.18 30035.94c-100.97,0 -205.06,-8.02 -309.16,-24.05 -1712.27,-264.92 -3151.92,-2638.83 -3215.31,-5302.85 -59.96,-2500.39 1114.45,-4367.86 2675.05,-4367.86 102.02,0 205.07,8.33 309.58,24.99 1711.96,264.4 3151.6,2637.79 3215.11,5301.91 60.38,2500.59 -1113.83,4367.86 -2675.27,4367.86z"/>
  <path class="fil0" d="M10357.85 25613.53c132.2,2313.52 -643.31,3954.39 -1734.23,3665 -1089.89,-288.97 -2082.13,-2399.09 -2214.96,-4712.11 -132.51,-2314.05 643.73,-3954.6 1734.03,-3665.22 1090.92,289.39 2081.91,2399.42 2215.15,4712.32z"/>
  <path class="fil3" d="M5104.87 21104.2c128.35,-188.42 282.2,-364.34 459.69,-519.44 90.15,-77.03 185.18,-148.87 287.09,-212.36 102.32,-63.5 209.54,-119.71 322.18,-168.64 112.73,-46.84 229.84,-84.31 350.07,-112.42l90.57 -18.74c30.08,-5.21 61.1,-9.37 91.61,-13.53l92.02 -12.5c30.92,-3.12 61.84,-4.16 92.74,-6.24 247.44,-14.57 497.06,14.58 734.5,75.99 238.38,63.5 464.27,159.27 674.54,275.86 210.28,117.62 404.93,256.07 586.06,408.05 182.18,151.98 345.61,320.62 498.63,495.5 78.07,87.44 149.89,179.04 220.68,270.64l103.06 140.53c34.35,45.8 64.53,94.72 97.85,142.61 128.03,192.58 247.75,389.32 351.84,594.38 54.13,100.98 100.97,205.07 150.93,308.13 45.81,105.13 94.73,209.23 135.33,315.4 171.75,424.72 298.76,864 392.44,1310.57 22.9,111.38 41.63,223.8 62.45,336.23 15.62,112.43 35.4,224.85 46.85,338.31 29.14,226.92 42.68,454.79 52.04,683.49 10.41,457.4 -11.45,918.54 -90.56,1375.1 -75.99,456.67 -199.87,910.53 -390.37,1345.76 -192.58,433.35 -448.65,854.11 -807.78,1207.2 -179.05,176.03 -383.07,334.04 -611.05,458.85 -227.96,124.08 -478.84,213.4 -736.99,258.17 -258.17,44.96 -522.57,45.8 -777.6,4.16 -253.79,-41.22 -496.23,-121.37 -719.62,-227.13 -223.7,-107.33 -428.24,-239.74 -616.14,-387.13 -45.8,-37.79 -93.17,-74.12 -137.82,-113.37l-131.37 -118.77 -124.4 -124.49c-41.22,-41.53 -79.01,-85.46 -118.77,-128.25 -154.59,-174.05 -295.85,-356.21 -422.95,-546.29 -125.64,-190.92 -240.98,-386.72 -344.03,-587.94 -100.77,-202.36 -192.79,-407.32 -272.94,-616.56 -77.86,-209.65 -150.84,-420.75 -206.95,-636.02 -118.67,-428.35 -193.2,-865.87 -230.26,-1303.8 -6.46,-76.73 50.8,-144.28 127.51,-150.74 69.23,-5.72 130.64,39.35 147.4,104.2l0.83 3.43c52.98,205.8 103.36,410.77 169.88,611.25 30.08,100.76 65.58,199.65 98.89,299.28 17.49,49.24 36.96,98.17 54.96,147.39 18.21,48.83 36.64,98.06 57.25,146.15l59.86 144.7 63.81 142.82 31.65 71.41 34.03 70.27c22.9,46.52 44.66,93.48 67.97,139.69 95.04,184.36 195.39,364.97 304.59,539.02 111.07,172.59 227.55,340.19 353.19,499.03 127.1,157.71 261.07,307.3 403.47,445.54 284.5,275.96 605.94,503.09 946.03,641.33 169.16,69.54 342.47,115.34 515.27,133.66 172.79,17.91 343.52,9.17 507.99,-26.75 328.94,-71.72 628.74,-256.18 877.53,-516.52 246.71,-261.49 444.49,-590.65 594.39,-945.62 145.73,-357.77 251.91,-740.33 312.29,-1133.92 62.45,-393.58 86.39,-796.33 77.03,-1199.49 -12.5,-403.17 -51.01,-807.99 -128.04,-1206.68 -19.77,-98.89 -37.48,-199.87 -61.41,-297.71 -20.82,-99.94 -46.84,-196.74 -71.82,-295.63 -54.13,-194.66 -113.47,-388.28 -183.21,-577.74 -32.26,-95.76 -71.82,-189.46 -108.25,-283.14 -40.6,-91.6 -78.08,-186.33 -122.84,-275.85 -84.31,-183.21 -178,-360.17 -281.06,-531.93 -102.02,-171.76 -214.44,-336.24 -335.19,-493.41 -119.71,-156.15 -249.83,-305 -389.32,-440.33 -139.49,-135.33 -289.39,-258.16 -447.61,-363.29 -158.23,-106.18 -324.79,-193.63 -499.14,-256.08 -174.16,-63.5 -354.65,-100.97 -537.97,-109.3l-68.71 -3.13 -68.71 2.09c-22.9,1.04 -46.21,1.04 -69.12,3.12l-69.12 6.26c-91.19,11.45 -182.48,29.14 -272.94,54.12 -89.72,27.07 -178.2,59.34 -265.34,99.94 -86.29,40.59 -170.29,88.48 -251.91,141.57 -82.54,53.08 -161.14,113.46 -237.85,178 -75.57,64.54 -148.13,135.33 -219.53,208.19l-2.72 3.13c-66.72,68.7 -176.75,69.74 -245.45,2.08 -61,-59.34 -68.71,-153.02 -22.17,-221.72z"/>
  <path class="fil3" d="M12189.94 24056.36c112.43,168.64 208.19,349.76 290.43,537.13 83.27,187.37 150.94,382.03 207.15,580.85 110.34,397.13 165.51,810.59 173.84,1224.49 9.36,413.88 -32.27,828.08 -112.43,1234.26 -83.27,405.04 -207.15,802.48 -370.58,1182.73 -163.42,380.58 -365.37,745.95 -608.96,1084.58 -60.38,84.74 -122.83,168.01 -188.41,249.31 -66.62,80.98 -134.29,160.4 -205.07,237.43 -140.52,155 -294.59,298.97 -455.94,434.5 -325.83,266.8 -694.32,491.65 -1100.29,628.74 -401.81,138.24 -842.14,184.05 -1250.19,100.04 -75.99,-16.03 -124.92,-90.87 -109.3,-167.18 12.49,-59.96 61.41,-103.47 118.66,-111.49l3.13 -0.42c731.8,-101.17 1331.38,-503.92 1811.27,-1017.74 480.92,-515.48 851.5,-1139.64 1125.27,-1800.12 272.73,-662.36 448.65,-1365.54 516.32,-2081.41 33.31,-358.09 37.47,-720.02 11.45,-1082.7 -12.5,-181.65 -34.36,-362.77 -63.5,-544.94 -30.18,-182.18 -66.62,-364.34 -110.34,-548.59l0 -3.12c-21.86,-94.73 37.48,-188.42 131.16,-210.28 73.9,-16.65 146.78,14.58 186.33,73.91z"/>
  <path class="fil1" d="M23801.84 24587.25c-1689.47,0 -3183.25,-929.58 -3623.58,-2404.61 -554.83,-1853.95 761.98,-3868.21 2940.71,-4500.06 444.5,-128.04 891.06,-189.46 1325.14,-189.46 1689.48,0 3182.22,928.54 3623.58,2404.61 553.8,1853.95 -763.02,3868.21 -2941.75,4499.03 -444.49,129.08 -891.06,190.5 -1324.1,190.5z"/>
  <path class="fil0" d="M23931.96 19970.59c1695.72,151.98 2936.54,1383.44 2771.03,2751.26 -165.51,1366.78 -1674.9,2351.53 -3370.63,2198.51 -1696.76,-151.98 -2936.54,-1384.48 -2771.03,-2751.26 165.51,-1366.78 1674.9,-2351.52 3370.63,-2198.51z"/>
  <path class="fil3" d="M25123.86 24382.17l144.69 -59.33c48.93,-20.82 97.85,-38.53 144.69,-60.39l140.53 -66.62c46.85,-22.9 94.72,-42.67 139.49,-69.74l136.37 -72.87 67.66 -36.43 65.58 -40.6c87.44,-54.13 175.92,-106.17 258.16,-167.59l125.96 -87.44 120.75 -93.7 59.34 -46.84c20.82,-15.62 40.59,-32.27 59.34,-48.93l113.47 -100.97 56.21 -49.98 54.13 -54.12 107.21 -105.15c35.4,-35.39 67.67,-74.94 102.02,-111.38 32.27,-38.52 67.66,-73.91 98.89,-113.47l93.69 -116.58c14.58,-19.78 31.23,-38.52 45.8,-58.3l42.68 -61.41 85.36 -121.79c27.07,-40.6 52.04,-84.32 78.07,-125.96 54.13,-82.24 97.85,-170.72 143.65,-257.12 24.99,-42.68 41.64,-88.48 62.46,-132.2 19.77,-44.76 41.63,-88.48 59.34,-134.29l49.96 -136.37c8.32,-22.9 17.69,-44.76 24.98,-67.66l19.78 -69.75 41.63 -138.44c10.41,-46.85 23.95,-92.65 32.27,-139.49 39.56,-187.37 60.38,-376.82 64.54,-564.2 4.17,-376.82 -63.49,-749.49 -205.06,-1094.04 -137.41,-345.61 -349.76,-657.89 -611.05,-925.42 -259.19,-270.64 -577.73,-486.12 -919.17,-655.8 -170.72,-85.36 -350.8,-155.11 -534.01,-212.36l-69.75 -21.86 -69.75 -18.74c-46.84,-11.45 -92.65,-26.02 -140.53,-35.39l-140.52 -32.27 -143.65 -26.03c-1530.21,-251.91 -3234.26,346.65 -4211.73,1581.22 -120.75,153.02 -232.13,315.41 -327.9,485.09 -96.8,170.72 -175.92,348.71 -241.5,532.97 -129.07,366.42 -195.7,757.82 -175.92,1150.26 8.33,195.7 38.52,391.41 84.31,585.02 47.89,192.58 116.59,381 200.91,563.16 86.4,182.16 190.5,356.01 313.33,520.48 119.71,164.47 259.21,320.62 408.06,464.27l1.04 1.04c55.17,53.09 57.26,142.61 3.13,197.78 -47.89,49.96 -124.92,56.21 -180.09,17.69 -185.29,-128.03 -356.01,-276.89 -516.32,-440.32 -158.22,-164.47 -298.75,-347.67 -422.63,-543.38 -247.75,-392.44 -408.05,-843.18 -472.59,-1310.57 -66.62,-468.43 -28.1,-952.48 97.85,-1409.45 121.79,-459.06 336.23,-888.99 606.88,-1276.21 546.51,-772.39 1328.26,-1364.7 2200.59,-1712.38 219.64,-85.36 441.36,-161.35 669.33,-219.64 227.97,-56.21 460.1,-102.02 694.32,-131.16 234.22,-27.07 470.51,-40.6 707.85,-37.48 236.3,5.21 473.64,24.99 708.9,61.41 235.26,34.36 467.39,91.61 695.36,162.39 229,71.82 452.81,159.27 668.29,267.53 215.47,106.17 422.63,232.13 619.37,374.74 196.74,142.61 380.98,305 548.58,483 167.6,178.01 318.53,373.71 449.69,581.9 130.12,208.19 240.46,430.95 323.74,663.09 169.68,461.14 240.46,958.72 207.15,1445.89 -16.65,242.54 -56.21,483 -120.75,716.18 -15.62,58.29 -34.35,115.55 -52.04,172.79l-61.43 168.64 -30.18 84.32c-11.45,28.1 -23.95,55.17 -35.4,82.24l-73.9 163.42c-209.23,426.79 -491.34,809.87 -817.15,1140.9 -328.94,328.94 -705.77,601.68 -1107.59,816.11 -99.93,55.17 -204.02,100.97 -307.08,148.86l-77.03 35.4 -80.16 31.22 -157.18 61.43c-53.09,21.86 -107.22,36.43 -161.35,53.08l-161.34 51.01c-108.26,29.14 -217.56,54.12 -326.86,80.15 -92.65,22.9 -186.33,-34.35 -208.19,-128.03 -19.78,-84.32 24.99,-167.6 102.02,-199.87l10.41 -5.21z"/>
  <path class="fil3" d="M18650.13 20470.26c-40.59,200.9 -71.82,401.81 -87.44,603.75 -17.69,201.95 -21.86,402.86 -12.49,602.71 19.77,398.69 90.56,791.13 213.4,1163.8 28.1,93.69 67.66,184.24 102.01,275.85 15.62,46.85 38.52,90.57 58.3,134.29l60.38 133.24c88.48,174.88 181.13,345.6 291.47,505.9 28.1,39.56 53.09,80.16 82.24,119.71l87.44 116.59 43.72 58.29 46.85 55.17 93.69 111.39c31.23,37.48 66.62,70.79 98.89,106.17 33.31,35.4 64.54,71.82 100.98,105.13l104.1 100.98c17.69,16.65 34.35,34.35 53.08,49.96l54.13 47.89 110.34 95.76c37.48,30.19 77.03,59.34 114.51,89.52 74.95,61.43 156.15,115.56 235.26,172.8 38.52,28.1 80.16,54.13 120.75,80.16l122.84 79.11 126.99 72.45c42.68,23.62 83.27,49.96 128.03,70.99 344.56,182.07 708.9,328.63 1084.68,437.1 375.79,112.22 765.11,179.47 1156.51,216.1 391.4,36.23 786.96,33.21 1180.44,-0.41 785.93,-70.58 1563.52,-280.64 2282.82,-611.57 719.31,-333.52 1379.27,-795.71 1926.81,-1369.27l52.05 -53.09 49.96 -55.17 98.89 -111.38c64.54,-74.95 125.96,-151.98 188.41,-229.01 118.67,-159.27 235.26,-319.58 337.27,-490.3 206.11,-338.31 382.03,-698.48 502.78,-1078.43 121.79,-378.91 200.91,-773.43 223.81,-1176.28 2.08,-99.93 10.41,-200.9 5.21,-301.88l-3.13 -151.98 -11.45 -151.97c-4.17,-102.02 -20.82,-201.95 -33.31,-303.97 -4.17,-51 -16.65,-99.93 -24.99,-150.93l-27.07 -151.98 -2.08 -9.37c-14.58,-75.99 36.44,-148.86 112.43,-162.39 68.7,-12.49 134.28,28.12 156.14,92.65 35.4,103.06 75.99,205.07 105.13,311.25 29.15,106.18 61.43,211.32 82.24,320.62l32.27 162.38 23.95 163.43c18.73,110.34 23.94,220.69 34.35,332.07 6.24,55.17 4.17,110.34 6.24,166.55 1.04,56.22 4.17,112.43 3.13,167.6l-6.26 167.6 -3.12 83.27 -7.28 83.27 -16.67 167.6c-6.24,55.17 -15.61,110.34 -23.94,166.55 -14.58,111.38 -39.55,219.64 -62.45,329.98 -10.41,55.17 -24.99,109.3 -39.56,163.43l-44.76 162.39 -52.04 160.3c-17.69,53.09 -33.31,107.22 -55.17,159.27 -40.6,105.13 -78.08,211.32 -126.99,312.29l-68.71 154.06 -77.03 150.94c-205.07,400.77 -460.1,775.52 -751.57,1119.03 -292.52,341.44 -619.38,654.77 -975.39,929.89 -43.72,35.92 -89.52,68.71 -135.32,101.5l-136.37 99.3c-92.65,64.54 -187.37,124.81 -281.07,187.48 -96.8,57.98 -193.61,115.34 -290.43,172.18 -99.93,52.67 -197.78,107.21 -298.75,158.01 -401.82,202.37 -824.44,364.65 -1256.44,489.46 -432,125.96 -877.53,208.82 -1326.18,253.17 -898.35,86.19 -1818.55,5.3 -2686.72,-265.34 -434.08,-136.79 -855.66,-317.29 -1251.23,-545.26 -395.57,-227.44 -764.07,-506.22 -1091.97,-826.1 -331.02,-318.12 -614.16,-685.58 -842.14,-1083.23 -115.55,-196.74 -210.27,-405.97 -297.71,-617.28 -20.82,-53.09 -38.52,-107.22 -58.3,-161.35 -18.73,-54.13 -39.55,-107.22 -54.13,-162.39 -30.18,-109.3 -65.57,-217.55 -89.52,-328.94 -206.11,-885.86 -134.28,-1821.67 182.16,-2640.91 34.36,-89.52 134.29,-134.29 223.81,-99.93 80.16,31.22 123.88,114.51 108.26,195.69l0 2.09z"/>
  <path class="fil1" d="M30459.81 9729.64c-1131.51,0 -2076.71,-746.37 -2146.46,-1724.87 -71.82,-1024.3 843.18,-1915.37 2044.45,-1989.28 54.13,-3.12 107.21,-5.21 160.3,-5.21 1131.53,0 2076.71,746.37 2146.46,1724.87 71.82,1024.31 -843.18,1915.37 -2044.44,1989.28 -54.13,4.17 -107.22,5.21 -160.32,5.21z"/>
  <path class="fil0" d="M30513.94 7293.8c860.87,275.85 1360.54,1056.57 1116.95,1745.69 -244.62,689.12 -1139.85,1024.3 -2000.72,748.44 -860.87,-274.81 -1360.54,-1056.57 -1116.95,-1745.68 244.62,-688.08 1140.89,-1023.26 2000.72,-748.45z"/>
  <path class="fil3" d="M30619.07 9698.41c435.13,-71.82 846.3,-236.3 1174.21,-496.54 40.59,-34.35 82.24,-64.53 119.71,-100.97l56.21 -53.09c18.73,-17.69 35.4,-37.48 53.09,-56.21 72.86,-72.86 134.28,-154.06 191.54,-236.3 26.03,-43.72 56.21,-83.27 78.07,-129.08l36.44 -65.58c10.41,-21.86 21.86,-43.72 31.22,-66.62 40.6,-90.56 71.84,-183.2 94.73,-277.94 87.44,-377.87 17.69,-778.63 -188.42,-1102.37 -202.99,-327.9 -532.97,-580.85 -905.63,-731.8 -745.32,-301.88 -1679.07,-194.65 -2318.22,316.45 -318.53,250.87 -557.95,606.88 -632.9,1008.69 -19.78,99.94 -28.1,202.99 -28.1,307.08 2.08,103.06 14.57,207.15 34.35,310.21 43.72,205.07 131.16,405.97 248.78,591.26l0 0c27.07,41.64 14.58,96.81 -27.07,123.88 -36.43,22.9 -83.27,16.65 -112.42,-13.54 -83.27,-88.48 -157.19,-184.24 -222.77,-288.34 -64.54,-104.1 -118.67,-216.52 -161.34,-333.11 -86.4,-234.22 -118.67,-489.26 -100.98,-744.29 17.69,-255.04 93.69,-505.91 212.36,-732.84 117.63,-229.01 280.02,-430.96 467.39,-603.75 376.83,-344.56 857.75,-566.29 1358.46,-647.48 498.62,-83.27 1024.3,-36.43 1503.14,153.02 119.71,45.81 236.3,103.06 348.72,167.6 111.38,64.54 219.64,137.41 320.61,219.64 201.95,164.47 381,364.34 516.32,593.34 134.28,229.01 229.01,487.17 261.27,753.66 34.36,264.4 12.5,537.13 -63.49,791.13 -38.52,126.99 -88.48,248.78 -150.94,364.33 -15.62,29.14 -32.27,56.21 -47.88,84.32l-53.09 82.24c-33.31,55.17 -74.95,105.13 -113.47,157.18 -162.39,199.87 -357.05,366.42 -567.33,500.71 -426.78,262.32 -920.21,391.4 -1399.04,375.78 -60.38,-2.08 -109.3,-53.08 -107.22,-114.51 2.09,-53.08 41.64,-96.8 92.65,-106.17l1.04 0z"/>
  <path class="fil3" d="M27736.66 6950.28c-169.68,397.65 -244.63,821.32 -196.74,1230.42 21.86,204.02 71.82,402.84 146.78,591.26 74.94,187.37 173.84,365.38 294.59,527.76 239.41,325.83 558.99,592.3 918.12,786.97 359.14,196.74 758.86,320.62 1166.91,375.79 409.1,54.13 830.69,36.43 1236.66,-48.93 404.93,-87.44 796.34,-245.67 1142.98,-473.64 174.88,-112.42 335.19,-245.67 481.96,-393.48 144.7,-147.82 276.9,-310.2 384.11,-489.25 109.3,-178.01 195.7,-371.62 257.12,-574.61 59.34,-202.99 91.61,-415.34 99.94,-632.91l0 -1.04c1.04,-48.93 42.67,-87.44 91.6,-86.4 43.72,2.09 79.12,34.36 85.36,74.95 37.48,231.09 37.48,470.51 3.12,706.81 -8.32,59.34 -19.77,117.63 -32.26,175.92l-21.86 87.44c-7.29,29.15 -15.62,58.3 -24.99,86.4l-27.07 86.4c-9.37,28.1 -20.82,56.21 -31.23,84.31 -20.81,56.22 -45.8,111.39 -69.74,166.56 -99.94,219.64 -233.18,423.67 -387.24,610 -153.02,187.37 -328.94,354.97 -521.52,501.75 -385.16,292.5 -831.73,504.86 -1301.2,621.45 -469.48,117.63 -958.72,147.82 -1440.69,88.48 -480.92,-59.33 -954.57,-210.27 -1379.27,-454.9 -210.28,-122.83 -411.18,-267.53 -591.26,-435.12 -181.13,-166.56 -341.44,-357.05 -475.72,-564.2 -135.33,-207.15 -239.42,-434.08 -312.29,-670.38 -36.44,-117.62 -61.41,-239.41 -81.2,-360.16 -7.28,-61.43 -15.62,-122.84 -19.78,-183.21 -3.12,-61.41 -8.32,-122.83 -7.28,-184.25 2.08,-244.62 37.48,-487.17 109.3,-717.22 36.44,-114.5 80.16,-225.89 131.16,-333.1 53.09,-107.22 111.38,-210.28 178.01,-307.09 35.39,-49.96 105.13,-62.45 155.1,-28.1 43.72,30.19 59.34,87.44 38.52,135.33l0 0z"/>
  <path class="fil3" d="M35897.78 12969.11c-226.93,147.82 -436.17,315.4 -625.62,498.62 -186.33,186.33 -357.05,385.15 -498.62,599.59 -288.34,428.87 -476.76,909.8 -567.32,1409.46 -90.57,498.62 -86.4,1014.93 5.21,1516.68 88.48,501.74 262.32,989.94 505.9,1443.8 242.54,452.82 552.75,874.41 918.13,1243.95 186.33,182.16 377.87,359.12 587.1,514.23l156.15 117.62 162.38 108.26c107.22,75.99 222.77,136.37 336.24,201.95 56.21,35.39 115.55,63.49 173.83,91.6l175.93 88.49 181.13 77.03 90.56 38.52c30.19,13.53 62.46,22.9 92.65,34.35l186.33 65.58c31.23,11.45 62.46,19.78 94.72,29.14l95.77 27.07 94.72 27.07c32.27,10.41 63.5,18.74 95.77,24.99 65.58,13.53 130.11,28.1 194.65,42.68 64.54,15.61 130.12,23.94 196.74,34.35 65.58,8.32 131.16,20.82 196.74,28.1l199.87 17.69c33.31,2.09 66.62,6.24 100.97,8.33l99.93 1.04 201.95 4.17 202.99 -9.37 102.02 -4.17 100.97 -11.45c66.63,-8.32 135.33,-15.62 204.04,-22.9l11.45 -1.04c77.03,-7.29 145.73,48.93 153.02,124.92 7.28,65.58 -32.27,124.91 -91.61,145.73 -68.71,24.99 -137.41,48.93 -208.19,72.86l-105.13 35.4 -107.22 27.07 -215.47 53.09c-72.86,13.53 -146.78,23.94 -220.68,36.43l-110.35 16.65c-36.43,5.21 -73.9,7.29 -110.34,10.41l-223.81 16.65c-74.94,3.13 -149.89,1.04 -224.85,1.04 -74.94,0 -149.89,2.09 -224.85,-6.24 -73.9,-5.21 -148.86,-10.41 -223.81,-17.69 -38.52,-2.08 -74.94,-7.28 -112.42,-13.53l-111.39 -16.65 -111.38 -16.67c-37.48,-5.19 -74.95,-11.45 -111.38,-20.81l-220.69 -49.96c-36.43,-9.37 -73.9,-15.62 -109.3,-27.07l-108.25 -32.27 -217.56 -67.67 -211.32 -80.15c-70.79,-28.1 -142.61,-53.09 -210.27,-87.44 -551.71,-247.76 -1066.98,-586.06 -1513.56,-1000.36 -447.6,-412.22 -828.6,-899.39 -1123.19,-1437.57 -148.86,-268.57 -272.73,-550.66 -372.66,-842.13 -99.93,-291.48 -171.75,-593.35 -218.6,-898.36 -89.52,-612.07 -66.62,-1244.98 92.65,-1846.66 157.19,-600.64 451.78,-1168.99 861.92,-1628.06 48.93,-59.34 105.13,-112.43 158.23,-166.56 53.08,-56.21 111.38,-106.17 167.59,-157.18 56.21,-52.05 116.58,-97.85 176.96,-144.7 59.34,-47.89 119.71,-92.65 182.18,-134.28 125.96,-85.36 256.07,-162.39 389.32,-231.1 135.33,-65.58 271.68,-125.96 413.26,-173.83 90.57,-31.23 189.46,17.69 220.69,109.3 26.02,77.03 -4.17,159.27 -69.75,201.95l-1.04 0z"/>
  <path class="fil1" d="M38659.44 20253.73c-1132.56,0 -2304.68,-758.85 -2933.42,-2020.5 -835.88,-1680.11 -391.4,-3616.28 994.12,-4324.14 345.6,-175.92 716.18,-260.23 1091.96,-260.23 1131.53,0 2304.68,758.85 2932.38,2021.54 836.93,1680.11 392.44,3615.25 -994.12,4323.1 -344.55,175.92 -716.17,260.23 -1090.92,260.23z"/>
  <path class="fil0" d="M39090.4 19724.93c-963.93,273.77 -2125.63,-118.67 -2930.3,-1087.81 -1071.15,-1291.83 -1103.42,-3118.72 -72.87,-4082.64 145.74,-136.37 305,-247.75 473.64,-334.15 789.05,96.81 1589.54,531.93 2203.7,1272.05 1087.81,1311.61 1204.39,3126 325.83,4232.55z"/>
  <path class="fil3" d="M40329.14 15236.32c-229.01,-200.91 -475.72,-372.66 -734.91,-511.12 -260.24,-137.41 -534.02,-241.5 -812.99,-303.95 -556.91,-128.04 -1135.68,-92.65 -1619.72,125.96l-89.53 42.68 -44.76 21.86 -43.72 23.94c-57.25,32.27 -111.38,66.62 -165.51,103.06 -53.09,37.48 -105.13,77.03 -154.06,118.66 -49.96,41.64 -95.77,88.49 -141.57,133.25 -179.05,186.33 -320.62,404.93 -417.42,644.36 -97.85,239.41 -146.78,499.66 -158.23,764.06 -9.37,264.4 27.07,532.97 97.85,794.25 144.69,522.57 446.57,1008.69 848.37,1392.81l74.95 71.82c26.03,23.94 53.09,44.76 80.16,67.66l80.15 67.66 83.29 61.43 84.31 62.45 87.44 56.21c29.14,18.74 57.26,38.52 87.44,56.22l91.61 51c243.58,133.24 504.86,237.33 776.56,298.75 270.64,64.54 550.66,82.25 826.52,58.3 34.35,-3.12 68.7,-5.21 103.05,-9.37l102.02 -17.69c69.75,-10.41 136.37,-26.03 204.02,-43.72 134.29,-35.39 264.41,-86.4 390.37,-146.78 250.86,-121.79 483,-293.54 676.62,-506.94 193.63,-212.36 348.72,-468.44 459.06,-748.45l1.04 -3.13c28.1,-71.82 109.3,-107.21 181.13,-78.07 63.5,23.95 97.85,89.53 87.44,153.02 -55.17,331.03 -178,658.93 -370.57,950.4 -190.5,291.47 -445.54,545.46 -743.25,739.08 -148.86,97.85 -309.17,180.09 -474.68,245.67 -83.27,33.31 -167.59,64.53 -253.99,86.39l-130.12 35.4c-43.72,10.41 -87.44,17.69 -131.16,27.07 -350.8,68.7 -714.09,72.86 -1066.98,21.86 -705.77,-107.22 -1373.03,-429.92 -1904.95,-903.55 -33.31,-29.15 -67.66,-58.3 -99.93,-88.48l-94.72 -94.73c-31.23,-31.22 -62.46,-62.45 -93.7,-94.72l-88.48 -100.97c-115.55,-136.37 -223.81,-277.94 -321.65,-429.92 -95.77,-150.94 -185.29,-308.12 -259.21,-472.59 -74.94,-164.47 -138.44,-334.15 -189.45,-509.03 -52.05,-173.84 -87.44,-352.89 -110.35,-535.06 -21.86,-182.16 -31.22,-366.42 -22.9,-550.67 15.62,-368.5 96.81,-739.08 245.67,-1085.72 151.98,-343.52 372.66,-659.96 646.43,-918.13 272.73,-255.03 602.71,-459.05 949.36,-579.81 346.64,-129.07 714.09,-183.2 1072.19,-176.96 45.8,-1.04 90.56,3.13 134.28,6.24l134.29 10.41c43.72,3.13 88.48,10.41 132.2,17.69l131.16 20.82c172.79,34.35 343.51,80.16 507.98,139.49 657.89,237.33 1224.17,669.33 1618.69,1208.54 57.26,77.04 40.6,186.34 -37.48,242.55 -66.62,49.96 -157.18,43.72 -217.55,-9.37l-2.09 -2.08z"/>
  <path class="fil0" d="M34121.9 31115.93c1081.56,434.09 1965.33,1139.64 2517.04,2099.82 999.33,1740.06 632.91,3815.01 -668.29,5742.97 -853.59,1264.45 -2131.88,2421.17 -3741.2,3275.59 -4062.87,2156.24 -8699.29,1567.89 -10355.46,-1313.69 -616.25,-1072.39 -732.84,-2310.83 -427.83,-3555.09 516.31,-2098.99 2285.94,-4109.29 4837.33,-5463.16l7838.42 -786.45z"/>
  <path class="fil3" d="M36814.86 33114.57c277.94,407.75 488.21,870.87 611.05,1360.64 123.87,489.46 160.3,1001.72 123.87,1506.06 -37.47,504.35 -145.73,1000.68 -306.03,1475.56 -80.16,237.44 -172.8,469.99 -276.9,696.71 -104.1,226.4 -215.47,449.38 -339.35,664.34 -246.71,428.67 -525.68,844.83 -840.05,1228.53 -312.29,386.3 -656.85,744.81 -1021.19,1079.27 -91.61,83.59 -185.29,164.16 -277.94,245.46 -95.76,77.86 -191.54,157.29 -288.34,234 -194.66,151.98 -392.44,299.69 -596.47,439.08 -408.06,277.53 -832.78,529.44 -1271.02,754.38 -877.53,446.67 -1812.31,785.3 -2778.31,989.54 -241.5,50.69 -485.09,93.89 -729.71,128.98 -244.63,34.35 -490.3,58.08 -737,74.11 -493.41,33.21 -989.95,25.92 -1484.41,-20.6 -246.71,-23.32 -492.37,-59.54 -737,-105.04 -243.58,-45.8 -486.13,-103.47 -724.5,-174.05 -477.8,-139.7 -943.11,-330.19 -1378.23,-575.33 -434.08,-245.46 -837.97,-547.86 -1185.65,-904.81 -173.84,-177.89 -333.11,-369.53 -474.68,-571.48 -140.53,-203.51 -267.53,-415.76 -371.62,-637.58 -38.52,-82.45 -2.08,-180.2 80.16,-218.71 72.86,-34.03 158.22,-9.58 202.99,53.82l1.04 1.46c132.2,185.6 272.73,362.77 427.83,524.95 153.02,163.85 317.49,316.88 492.37,454.38 349.76,275.23 733.88,503.52 1139.85,681 811.94,356.21 1699.89,526.52 2589.9,557.01 891.06,30.6 1787.33,-74.84 2656.53,-288.24 216.51,-53.82 433.04,-114.08 646.43,-179.77 214.44,-65.68 425.74,-139.69 636.02,-219.12 209.23,-80.15 417.42,-163.84 621.45,-255.03 205.07,-91.61 407.02,-189.04 605.84,-292.09 397.65,-207.67 785.93,-432.94 1156.5,-684.12 372.66,-248.48 729.72,-519.55 1065.94,-812.47 338.31,-291.67 654.77,-606.98 950.4,-939.05 294.58,-333.74 562.11,-687.24 804.66,-1062.5 241.5,-374.12 450.73,-765.83 623.52,-1171.29 169.68,-406.19 298.76,-827.67 370.58,-1258.31 72.86,-430.33 86.4,-869.72 31.23,-1304.53 -56.21,-434.39 -182.16,-863.99 -372.66,-1272.46l0 -1.46c-47.89,-102.02 -4.17,-223.4 97.85,-271.07 92.65,-42.78 199.86,-11.14 255.03,69.84z"/>
  <path class="fil1" d="M27964.64 41880.07c-2321.34,0 -4240.87,-1094.98 -4733.24,-2925.92 -661.01,-2457.81 1496.89,-5311.19 4821.72,-6373.69 847.34,-270.64 1689.47,-399 2483.72,-399 2321.34,0 4239.83,1094.99 4732.2,2925.93 662.05,2457.8 -1496.9,5311.18 -4821.72,6373.27 -846.3,271.07 -1688.43,399.41 -2482.68,399.41z"/>
  <path class="fil0" d="M28519.47 34991.01c2876.16,-688.39 5458.79,252.64 5770.03,2101.59 310.21,1848.95 -1768.59,3905.58 -4644.76,4593.86 -2876.16,687.97 -5459.82,-253.06 -5770.03,-2102.01 -311.24,-1848.95 1768.6,-3905.58 4644.76,-4593.44z"/>
  <path class="fil3" d="M25470.5 41775.45c-145.74,-49.65 -292.5,-102.32 -433.04,-167.6 -71.82,-30.6 -141.57,-66.83 -211.32,-100.76 -68.7,-37.48 -139.48,-72.55 -206.1,-113.77 -271.69,-159.69 -525.68,-354.35 -756.79,-578.46 -460.1,-449.69 -798.41,-1035.75 -967.04,-1671.79 -82.24,-318.01 -123.88,-646.33 -126.99,-973.5 -2.09,-327.59 35.39,-653.2 103.05,-970.06 67.67,-316.88 167.6,-624.16 288.35,-921.15l46.85 -110.76c15.61,-37.05 31.22,-74.11 48.91,-109.6 34.36,-72.14 68.71,-144.7 104.11,-216.42l113.46 -210.38c37.48,-70.27 80.16,-137.41 120.75,-206.11 39.56,-69.12 84.32,-135.22 128.04,-201.22 42.67,-66.41 86.39,-133.65 133.24,-197.04 46.85,-64.13 91.61,-129.4 139.49,-192.37l146.77 -186.33c201.95,-243.9 414.31,-477.59 641.23,-696.3 454.91,-436.06 957.68,-819.34 1492.74,-1144.94 1070.11,-648.63 2273.45,-1091.45 3531.97,-1240.42 315.41,-35.5 631.87,-54.65 950.4,-54.96 318.53,1.88 638.1,26.03 956.64,71.73 634.98,90.87 1267.88,280.33 1851.86,592.21 291.47,155.73 569.4,343.19 822.36,564.61 252.95,221.42 479.89,475.31 670.38,754.8 190.49,279.07 345.6,582.93 454.9,902.5 109.3,319.16 175.92,651.23 199.86,982.98 23.95,332.17 5.21,663.2 -46.84,984.95 -52.05,321.86 -140.53,633.43 -252.96,931.97 -113.46,298.54 -250.86,584.91 -409.09,856.7 -159.27,271.38 -337.27,528.4 -530.89,771.15 -192.58,243.59 -402.86,471.46 -624.57,684.54 -109.3,108.47 -225.9,208.82 -340.4,310.41 -58.29,49.96 -118.66,97.32 -178,145.41 -29.14,24.05 -58.3,48.51 -88.48,71.84l-92.65 68.7c-242.54,185.5 -496.54,353.1 -756.77,508.82l-196.74 113.47c-66.62,36.22 -134.29,70.57 -200.91,106.07 -132.2,73.29 -270.64,133.25 -407.01,198.52 -81.2,39.35 -179.05,5 -218.6,-76.72 -36.44,-75.16 -9.37,-164.47 59.34,-208.82l6.24 -3.85c244.62,-157.6 487.17,-314.47 715.13,-491.65 230.05,-174.15 452.82,-354.65 661.01,-551.29l79.12 -72.55c26.02,-24.78 51,-50.39 75.98,-75.27l151.98 -151.15c97.85,-103.47 195.7,-205.8 287.31,-314.16l70.79 -79.84c22.9,-27.07 43.72,-54.96 66.62,-82.44 43.72,-55.38 89.52,-108.78 132.2,-164.89l125.96 -169.46c42.68,-56.22 80.16,-115.34 120.75,-173.01 155.1,-233.28 299.8,-472.29 421.59,-720.76 119.71,-248.89 223.81,-503.62 303.97,-763.24 79.11,-259.51 136.36,-523.39 164.47,-786.75 28.1,-263.47 27.07,-526.52 -4.17,-782.7 -31.23,-255.76 -92.65,-505.07 -186.33,-740.22 -93.69,-234.74 -217.56,-457.4 -367.46,-660.81 -148.87,-203.19 -325.83,-386.82 -523.61,-547.54 -195.7,-162.6 -414.31,-301.98 -646.43,-417.94 -232.13,-116.91 -479.89,-209.65 -733.88,-284.81 -254,-74.84 -516.31,-130.22 -783.84,-163.01 -266.49,-33.21 -537.13,-48.51 -809.87,-49.66 -271.69,2.71 -545.47,20.93 -817.16,53.82 -1088.83,135.53 -2154.78,516.53 -3110.38,1077.39 -240.46,138.14 -471.55,292.41 -695.36,453.86 -224.85,161.87 -436.15,340.19 -642.27,522.66 -205.07,184.77 -396.61,382.14 -577.74,587.93 -181.13,206.95 -347.67,424.09 -499.66,650.19 -153.02,225.99 -286.26,462.7 -402.84,707.02 -115.56,243.59 -210.28,495.91 -281.07,753.24 -72.86,256.91 -118.66,519.55 -133.24,783.02 -16.65,263.05 -2.09,526.82 44.76,784.57 46.85,258.36 126.99,510.38 240.46,750.12l41.64 90.46 47.88 87.85c15.62,29.46 32.27,58.39 49.96,86.72 16.65,28.2 33.32,57.56 51.01,85.46 37.48,55.38 73.9,111.9 114.51,165.3 38.52,54.96 81.2,106.91 122.83,159.99 172.8,207.26 372.66,397.02 595.43,561.6 218.6,169.47 462.18,309.58 716.18,436.37l5.21 2.6c99.93,50.49 140.52,173.01 90.56,273.36 -45.8,92.02 -153.02,133.66 -247.75,101.6z"/>
 </g>
</svg>
