<?xml version="1.0" encoding="UTF-8"?>
<!DOCTYPE svg PUBLIC "-//W3C//DTD SVG 1.1//EN" "http://www.w3.org/Graphics/SVG/1.1/DTD/svg11.dtd">
<!-- Creator: CorelDRAW -->
<svg xmlns="http://www.w3.org/2000/svg" xml:space="preserve" width="407.157mm" height="407.548mm" version="1.1" style="shape-rendering:geometricPrecision; text-rendering:geometricPrecision; image-rendering:optimizeQuality; fill-rule:evenodd; clip-rule:evenodd"
viewBox="0 0 12757.17 12769.43"
 xmlns:xlink="http://www.w3.org/1999/xlink"
 xmlns:xodm="http://www.corel.com/coreldraw/odm/2003">
 <defs>
  <style type="text/css">
   <![CDATA[
    .fil0 {fill:#FFD039}
    .fil1 {fill:#FFECB0;fill-rule:nonzero}
   ]]>
  </style>
 </defs>
 <g id="Camada_x0020_1">
  <metadata id="CorelCorpID_0Corel-Layer"/>
  <ellipse class="fil0" cx="6378.59" cy="6391.52" rx="6378.58" ry="6377.91"/>
  <path class="fil1" d="M698.37 3457.74c1063.16,-2052.16 3207.35,-3457.74 5673.65,-3457.74 2406.41,0 4506.21,1338.18 5594.35,3309.28 -1168.24,-1780.93 -3182.21,-2957.02 -5471.39,-2957.02 -689.53,0 -1354.33,106.82 -1978.42,304.68 137.01,40.87 232.6,113.14 264.69,213.84 83.13,260.21 -290.97,611.85 -835.48,785.08 -201.38,64.15 -398.01,94.86 -569.83,94.86 -292.51,0 -513.6,-88.86 -565.73,-253.02 -0.95,-2.53 -1.6,-5.13 -2.25,-7.68 -763.81,522.35 -1569.1,1180.17 -2109.57,1967.72z"/>
 </g>
</svg>
