<?xml version="1.0" encoding="UTF-8"?>
<!DOCTYPE svg PUBLIC "-//W3C//DTD SVG 1.1//EN" "http://www.w3.org/Graphics/SVG/1.1/DTD/svg11.dtd">
<!-- Creator: CorelDRAW -->
<svg xmlns="http://www.w3.org/2000/svg" xml:space="preserve" width="545.63mm" height="423.555mm" version="1.1" style="shape-rendering:geometricPrecision; text-rendering:geometricPrecision; image-rendering:optimizeQuality; fill-rule:evenodd; clip-rule:evenodd"
viewBox="0 0 82879.06 64336.3"
 xmlns:xlink="http://www.w3.org/1999/xlink"
 xmlns:xodm="http://www.corel.com/coreldraw/odm/2003">
 <defs>
  <style type="text/css">
   <![CDATA[
    .fil1 {fill:#251344;fill-rule:nonzero}
    .fil3 {fill:#390075;fill-rule:nonzero}
    .fil2 {fill:#6747C2;fill-rule:nonzero}
    .fil5 {fill:#6A478C;fill-rule:nonzero}
    .fil4 {fill:#6A478C;fill-rule:nonzero}
    .fil0 {fill:#8328AC;fill-rule:nonzero}
    .fil10 {fill:#8C6BAE;fill-rule:nonzero}
    .fil8 {fill:#996093;fill-rule:nonzero}
    .fil7 {fill:#C38AA0;fill-rule:nonzero}
    .fil6 {fill:#FFC5B3;fill-rule:nonzero}
    .fil9 {fill:white;fill-rule:nonzero}
   ]]>
  </style>
 </defs>
 <g id="Camada_x0020_1">
  <metadata id="CorelCorpID_0Corel-Layer"/>
  <g id="_2497156467696">
   <path class="fil0" d="M69857.39 39347.54c0,0 2875.54,11115.84 -4780.65,22717.21l-1345.27 -5736.11c0,0 5121.63,-6289.5 6125.92,-16981.1z"/>
   <path class="fil0" d="M65448.88 60225.27c32.63,-372.15 12.3,-732.09 -47.21,-1074.57 285.08,-198.68 649.6,-469.36 1071.73,-819.57 -312.36,627.56 -652.65,1259.34 -1024.52,1894.14zm-916.74 -3354.8l-90.99 -387.5c96.23,-128.47 223.17,-302.26 374.26,-520.56 -88.81,305.78 -183.22,608.97 -283.27,908.06z"/>
   <path class="fil1" d="M64441.15 56482.96l914.73 3900.43c3634.54,-6128.3 4387.04,-12035.8 4358.43,-15991.94 -1545.07,6782.38 -4470.39,11020.74 -5273.16,12091.51zm635.58 6237.99c-38.16,0 -76.98,-3.45 -115.03,-10.4 -258.18,-45.87 -463.91,-240.72 -523.71,-496.05l-1345.25 -5736.12c-46.16,-198 1.72,-406.09 130.08,-563.85 49.7,-61.23 5009.38,-6280.81 5982.2,-16628.2 29.57,-317.2 283.26,-567 600.87,-592.46 316.64,-25.56 606.58,180.82 686.69,489.65 30.52,117.49 741.05,2926.96 500.71,7209.09 -222.22,3939.35 -1334.28,9918.58 -5369.11,16033.53 -122.75,186.07 -329.52,294.81 -547.45,294.81z"/>
   <path class="fil0" d="M9064.01 38107.86c0,0 -2874.69,11115.55 4781.23,22717.32l1345.27 -5736.5c0,0 -5121.63,-6289.19 -6126.5,-16980.82z"/>
   <path class="fil0" d="M12917.25 52824.1c-116.84,-66.11 -232.34,-120.29 -346.31,-164.34 77.63,-16.12 149.34,-38.54 215.45,-67.91 44.07,79.08 87.46,156.42 130.86,232.25zm-2246.75 -108.07c-34.62,-108.44 -68.19,-216.21 -101.38,-324.27 227.75,60.18 439.3,113.01 635.58,156.41 -200.49,41.3 -380.64,102.44 -534.2,167.86z"/>
   <path class="fil1" d="M9207.07 43151.47c-28.42,3956.15 723.71,9863.65 4358.62,15991.87l914.75 -3900.45c-802.77,-1070.3 -3728.1,-5309.42 -5273.37,-12091.42zm4637.79 18329.5c-217.56,0 -424.32,-108.73 -547.08,-294.53 -4035.48,-6115.32 -5146.78,-12094.57 -5368.82,-16033.82 -241.39,-4282.13 469.72,-7091.6 500.15,-7209.09 79.73,-308.55 367.95,-514.26 687.36,-489.74 317.6,25.55 570.83,275.25 600.58,592.56 974.82,10373.23 5932.02,16566.87 5982.09,16628.2 128,157.74 176.26,365.84 129.72,563.75l-1344.98 5736.59c-59.71,254.94 -265.82,449.79 -523.62,495.96 -38.43,6.68 -76.97,10.12 -115.4,10.12z"/>
   <path class="fil2" d="M73815.43 38107.86c0,0 2874.6,11115.55 -4781.12,22717.32l-1345.74 -5736.5c0,0 5121.63,-6289.19 6126.86,-16980.82z"/>
   <path class="fil0" d="M69313.75 59143.34l-678.12 -2888.13c825.95,-906.64 1711.03,-2019.65 2578.95,-3364.63 60.09,-93.37 120.16,-188.18 181.21,-284.32 270.86,-51.4 574.15,-124.55 914.64,-214.49 -663.82,2157.18 -1625.2,4438.45 -2996.68,6751.58z"/>
   <path class="fil1" d="M68399.11 55242.9l914.64 3900.45c3634.73,-6128.21 4386.28,-12035.72 4358.62,-15991.87 -1546.03,6782 -4471.16,11021.12 -5273.27,12091.42zm635.2 6238.08c-38.16,0 -77.27,-3.43 -115.41,-10.12 -257.51,-46.16 -463.53,-241.01 -523.62,-495.96l-1344.78 -5736.59c-46.72,-197.91 1.91,-406 129.72,-563.75 49.59,-61.34 5009.07,-6280.82 5981.91,-16628.2 29.56,-317.31 283.26,-567.01 600.85,-592.56 320.47,-24.52 607.54,181.2 686.71,489.74 30.52,117.49 742.01,2926.96 500.71,7209.09 -222.22,3939.26 -1333.33,9918.5 -5368.64,16033.82 -123.04,185.8 -329.99,294.53 -547.45,294.53z"/>
   <path class="fil0" d="M10307.13 26595.76c0,0 -908.35,1590.09 -1103.59,3717.52l-3896.06 1159.86c0,0 -157.85,-718.74 -25.18,-1603.44 192.66,-1292.04 1008.41,-2939.26 3840.75,-3232.35 361.65,-37.09 755.56,-51.8 1184.07,-41.59z"/>
   <path class="fil3" d="M10046.86 26679.02c-321.41,0 -628.15,14.6 -915.04,44.35 -2764.43,286.11 -3572.73,1875.92 -3764.06,3158.89 -101.77,677.93 -28.51,1262.39 7.15,1480.99l3748.14 -1116.07c172.81,-1754.23 828.71,-3151.93 1041.67,-3567.87 -39.1,-0.29 -78.68,-0.29 -117.87,-0.29zm-4803.74 4903.6l-19.84 -90.61c-6.68,-30.42 -159.66,-745.08 -26.14,-1635.21 200.2,-1343.54 1042.36,-3007.45 3916.85,-3305.21 370.05,-38.05 772.35,-52.07 1195.24,-42.24l144.39 3.43 -71.62 125.6c-8.78,15.74 -901.38,1599.91 -1092.42,3682.61l-5.26 58.37 -4041.21 1203.24z"/>
   <path class="fil0" d="M5889.46 30408.09c9.83,-233.68 39.48,-495 104.53,-763.58 348.4,-101.47 729.22,-199.42 1130.38,-282.3 128.76,-26.61 251.89,-68.87 366.9,-124.95 -66.09,237.96 -133.52,474.4 -202.86,709.02 -437.2,108.82 -916.46,257.51 -1398.96,461.81z"/>
   <path class="fil1" d="M9270.68 27283.02c-1237.48,113.03 -2145.26,510.36 -2705.3,1185.81 -567.77,684.88 -682.5,1548.88 -679.93,2148.02l2716.75 -809.06c140.69,-1021 421.18,-1898.91 668.48,-2524.77zm-3963.39 4846.27c-115.78,0 -230.7,-30.7 -332.47,-90.59 -156.98,-92.32 -268.48,-245.89 -307.77,-423.56 -20.7,-93.37 -490.52,-2307.5 879.27,-3972.16 972.62,-1182.28 2576.35,-1756.24 4777.2,-1702.45 231.29,5.64 442.17,132.29 555.48,333.34 113.66,201.14 113.01,447.39 -1.44,647.88 -7.63,13.64 -841.2,1503.68 -1020.32,3451.32 -24.41,266.58 -208.78,491.75 -465.91,568.44l-3896.82 1160.61c-61.34,18.12 -124.37,27.17 -187.23,27.17z"/>
   <path class="fil0" d="M6104.73 48914.97c-951.93,119.6 -1816.22,46.45 -2424.05,-51.13 -594.76,-95.18 -1110.92,-459.61 -1397.81,-989.22 -425.28,-782.07 -744.5,-1699.58 -983.6,-2678.31 -802.5,-3299.48 -676.39,-7296.17 -555.38,-9158.84 51.04,-766.33 541.74,-1441.11 1267.16,-1690.8 290.97,-100.04 583.58,-169.67 849.4,-220.02 650.16,-122.47 1153.07,-118.93 1153.07,-118.93 -218.03,10047.63 2091.2,14907.25 2091.2,14907.25z"/>
   <path class="fil3" d="M3925.4 34095.45c-170.14,4.97 -571.1,25.94 -1049.21,115.79 -310.82,59.13 -584.75,130.19 -837.21,217.26 -684.79,235.39 -1159.38,869.26 -1209.06,1614.99 -131.33,2021.08 -234.33,5895.3 553.27,9132.61 253.88,1039.86 582.17,1934.29 975.49,2657.33 275.72,508.91 762.62,853.41 1335.64,945.07 539.05,86.4 1364.71,165.48 2284.41,64.37 -330.19,-774.06 -2237.4,-5660.97 -2053.33,-14747.41zm1169.98 14967.45c-567.39,0 -1062.48,-55.32 -1428.34,-114.07 -626.33,-100.04 -1158.53,-476.68 -1459.99,-1033.29 -400.29,-735.92 -733.92,-1643.97 -991.61,-2698.54 -792.85,-3259.99 -689.65,-7153.86 -557.67,-9185.06 54.27,-814.98 574.55,-1508.65 1325.25,-1766.81 260.08,-89.57 541.92,-162.62 861.22,-223.47 650.46,-122.08 1146.6,-119.98 1169.78,-120.36l87.64 0.76 -1.81 87.37c-215.18,9907.04 2059.89,14820.17 2082.8,14868.72l51.2 107.39 -118.36 15.07c-356.14,44.84 -699.77,62.29 -1020.12,62.29z"/>
   <path class="fil0" d="M5113.68 48320.98c-148.78,0 -292.52,-3.83 -429.96,-10.88 -11.15,-27.95 -22.4,-55.99 -33.66,-83.56 -194.46,-501.96 -417.65,-996.94 -773.01,-1468.76l-337.91 70.01c-89.85,463.04 -63.99,904.15 16.78,1331.61 -232.81,-82.21 -435.49,-229.47 -586.36,-426.42 -238.52,-576.45 -433.66,-1201.91 -593.14,-1854.94 -55.21,-226.99 -106.05,-457.13 -152.79,-689.76 547.93,-211.64 939.64,-778.63 856.37,-1433.47 -261.9,-2062.29 -598.49,-5574.46 -341.16,-8563.42 108.92,-65.42 225.66,-120.36 349.36,-162.7 85.08,-29.38 170.15,-55.88 254.74,-80.4 -6.87,968.14 8,2181.21 77.83,3523.71 -27.28,27.28 -53.7,52.45 -79.17,75.54 -150.21,137.53 -228.13,336.86 -210.88,539.72 17.09,202.87 127.52,386.17 298.72,496.05 7.34,4.86 28.42,17.83 63.05,37.09 206.67,2824.52 671.81,6039.05 1663.52,8700.57 -14.22,0 -28.24,0 -42.35,0z"/>
   <path class="fil0" d="M1987.1 45254.78c-839.1,-3234.53 -710.25,-7301.14 -588.46,-9174.96 33.48,-514.84 358.05,-952.13 826.72,-1113.41 185.12,-63.61 371.19,-113.95 549.64,-153.83 -13.17,125.22 -25.18,251.78 -36.15,378.81 -530.48,319.33 -875.53,892.24 -917.88,1527.82 -112.65,1734.68 -229.76,5319.62 402.66,8469.08 -76.12,29.38 -155.18,51.8 -236.53,66.48z"/>
   <path class="fil1" d="M3346.12 34713.2c-321.34,41.3 -722.95,116.55 -1120.75,253.21 -468.68,161.28 -793.25,598.58 -826.72,1113.41 -153.45,2362.44 -318.45,8210.24 1459.81,11482.17 192,352.88 528.95,591.8 924.65,654.75 351.56,55.99 832.44,107.39 1378.65,104.25 -633.39,-1773.78 -1892.24,-6244.76 -1815.64,-13607.78zm1747.35 14919.47c-601.92,0 -1127.9,-58.37 -1517.03,-120.65 -800.86,-127.7 -1482.6,-610.39 -1870.49,-1323.99 -1941.73,-3571.97 -1777.12,-9717.06 -1616.22,-12193.18 67.82,-1044.16 738.49,-1934.68 1708.63,-2268.69 1096.54,-377.49 2168.92,-375 2219.47,-374.35 175.49,1.06 343.44,72.77 465.9,198.77 122.47,125.89 189.23,295.47 185.33,471.04 -213.17,9778.68 2004.48,14564.49 2026.81,14611.69 90.32,189.99 84.01,412.12 -16.69,596.39 -101.48,184.74 -284.7,309.58 -493.48,335.81 -381.02,48.26 -748.88,67.14 -1092.22,67.14z"/>
   <path class="fil4" d="M8672.21 51204.64c-1016.79,-192.76 -1878.03,-853.81 -2332.48,-1781.12 -504.74,-1026.62 -901.29,-2186.47 -1215.55,-3405.55l0.09 -2.1c-1122.85,-4359 -1171.01,-9483.78 -1110.74,-12008.15 29.09,-1215.17 722.57,-2329.25 1819.85,-2854.28 619.37,-295.95 1253.89,-490.43 1801.33,-615.27 899.3,-203.62 1568.83,-224.9 1568.83,-224.9 0,0 -1649.99,13881.99 3312.46,21284.88 739.16,1102.54 -2790.28,-195.52 -3843.79,-393.52z"/>
   <path class="fil3" d="M8688.33 51119.94c267.9,50.46 682.03,167.57 1161.56,303.29 932.2,263.71 2492.61,705.88 2670.03,461.7 27.93,-38.43 0.29,-125.21 -75.64,-238.52 -4700.06,-7011.47 -3472.68,-19960.59 -3337.64,-21241.47 -217.55,14.29 -770.9,62.93 -1452.64,217.55 -644.36,146.58 -1244.36,351.55 -1783.41,608.97 -1063.53,508.53 -1742.13,1573.29 -1770.73,2778.36 -62.76,2625.86 -2.29,7674.71 1107.87,11984.4l2.76 12.99c333.53,1291.65 739.54,2428.13 1206.49,3378.17 441.59,900.33 1290.52,1548.88 2271.35,1734.58zm3546.13 1001.81c-497.76,0 -1358.91,-229.09 -2431.38,-532.76 -475.74,-134.29 -886.33,-250.35 -1146.98,-299.39l0 -0.38c-1033.97,-195.52 -1928.67,-878.98 -2393.8,-1827.57 -473.55,-963.29 -884.61,-2114.45 -1221.58,-3421.94l-2.76 -12.97c-1112.73,-4327.55 -1173.49,-9388.31 -1110.63,-12021.14 30.33,-1270.49 746.31,-2392.85 1868.87,-2930.19 550.61,-262.66 1162.81,-471.82 1819.27,-621.16 897.3,-203.25 1578.64,-227.01 1585.23,-227.37l100.43 -3.16 -11.94 99.67c-16.39,138.48 -1589.03,13935.48 3298.54,21226.79 45.78,68.95 186.45,278.49 71.71,436.23 -68.57,94.43 -214.1,135.34 -424.97,135.34z"/>
   <path class="fil5" d="M11539.75 51278.08c-516.64,-114.36 -1154.32,-294.91 -1540.5,-404.39 -490.32,-138.77 -913.97,-258.85 -1206.39,-314.06 -804.11,-152.14 -1501.29,-684.9 -1864.68,-1425 -68.19,-139.26 -134.38,-280.6 -198.66,-425 -185.8,-536.95 -350.88,-1094.79 -497.96,-1665.43l0 -2.01c-53.59,-208.1 -104.81,-418.4 -153.54,-629.65 23.83,1.43 47.77,1.72 71.62,1.72 912.83,0 1756.89,-823.75 1559.58,-1880.02 -227.01,-1214.51 -469.36,-2862.68 -590.77,-4806.14 394.96,-119.98 819.18,-283.64 1272.22,-502.62 271.04,3994.59 1086.79,8568 3149.08,12052.61z"/>
   <path class="fil1" d="M8471.74 31048.53c-609.27,91.93 -1502.34,286.78 -2354.71,695.38 -869.54,416.97 -1424.42,1290.33 -1447.98,2279.17 -71.92,3012.8 4.28,10515.64 2259.13,15111.55 363.38,740.1 1060.57,1272.86 1864.68,1425 292.41,55.21 716.07,175.29 1206.39,314.06 386.18,109.49 1023.85,290.03 1540.5,404.39 -3925.34,-6631.6 -3333.83,-17206.37 -3068.01,-20229.55zm3761.66 21641.96c-589.4,0 -1430.24,-225.95 -2591.6,-554.71 -441.11,-124.95 -857.71,-242.73 -1092.33,-287.16 -1208.21,-228.44 -2254.47,-1027 -2798.59,-2136.22 -2382.93,-4855.72 -2467.52,-12611.48 -2393.23,-15720.41 35.57,-1484.9 875.54,-2799.35 2192.38,-3430.74 1740.88,-834.91 3557.01,-901.38 3633.59,-903.86 191.31,-7.64 374.62,71.44 504.05,212.31 129.04,140.67 190.26,330.95 167.86,520.55 -16.13,136.39 -1562.14,13729.1 3205.07,20842.33 368.35,549.56 164.43,944.5 59.8,1088.62 -188.85,259.89 -477.06,369.29 -887,369.29z"/>
   <path class="fil0" d="M72571.75 26595.76c0,0 908.92,1590.09 1103.48,3717.52l3896.07 1159.86c0,0 158.32,-718.74 25.75,-1603.44 -192.65,-1292.04 -1008.12,-2939.26 -3840.75,-3232.35 -362.41,-37.09 -756.31,-51.8 -1184.55,-41.59z"/>
   <path class="fil0" d="M76989.51 30408.09c-218.41,-92.72 -436.82,-173.88 -651.41,-245.21 -11.45,-224.24 -24.8,-449.13 -39.11,-676.5 203.16,50.35 399.62,103.87 586.56,158.12 63.9,268.58 94.42,529.9 103.96,763.58z"/>
   <path class="fil1" d="M74277.06 29807.79l2716.26 809.06c2.86,-599.14 -111.6,-1463.14 -680.02,-2148.02 -559.84,-675.45 -1467.82,-1072.78 -2704.83,-1185.81 247.03,625.86 527.43,1503.77 668.59,2524.77zm3295.19 2321.5c-62.93,0 -125.89,-9.05 -187.88,-27.17l-3897.01 -1160.61c-256.55,-76.69 -440.64,-301.86 -465.42,-568.44 -179.31,-1947.64 -1012.89,-3437.39 -1021.47,-3452.37 -113.5,-200.47 -113.5,-446.74 0,-647.12 114.45,-200.76 324.28,-327.41 555.09,-333.05 2194.56,-52.07 3804.49,520.46 4777.31,1702.45 1369.59,1664.95 900.35,3878.79 879.36,3972.16 -39.1,177.67 -150.68,331.24 -308.06,423.56 -101.1,59.89 -216.5,90.59 -331.91,90.59z"/>
   <path class="fil0" d="M76773.97 48914.97c952.78,119.6 1816.87,46.45 2424.41,-51.13 594.19,-95.18 1111.12,-459.61 1397.25,-989.22 425.37,-782.07 744.87,-1699.58 984.27,-2678.31 802.1,-3299.48 676.21,-7296.17 555.07,-9158.84 -50.54,-766.33 -541.72,-1441.11 -1267.53,-1690.8 -290.9,-100.04 -582.73,-169.67 -848.83,-220.02 -650.46,-122.47 -1153.09,-118.93 -1153.09,-118.93 218.41,10047.63 -2091.56,14907.25 -2091.56,14907.25z"/>
   <path class="fil0" d="M77764.91 48320.98c-14.31,0 -27.66,0 -41.97,0 1622.32,-4353.76 1835.97,-10188.98 1813.08,-13372.68 84.88,24.52 169.77,51.02 254.64,80.4 123.99,42.33 240.35,97.27 350.03,162.7 256.57,2988.96 -80.11,6501.13 -341.43,8563.42 -83.94,654.84 308.06,1221.84 856.47,1433.47 -46.74,232.63 -97.27,462.77 -152.61,689.76 -160.22,653.03 -354.78,1278.87 -593.23,1855.23 -198.38,258.56 -486.4,431.37 -814.5,483.45 -340.49,54.55 -800.19,104.25 -1330.47,104.25z"/>
   <path class="fil0" d="M80892.25 45254.78c-82.02,-14.69 -161.19,-37.11 -236.53,-66.48 632.33,-3149.46 515.02,-6734.4 402.48,-8469.08 -41.97,-635.58 -387.23,-1208.48 -917.51,-1527.82 -11.44,-127.03 -23.85,-253.59 -37.18,-378.81 178.34,39.87 365.28,90.21 550.32,153.83 468.28,161.28 792.56,598.58 826.88,1113.79 121.14,1873.83 250.84,5940.04 -588.45,9174.58z"/>
   <path class="fil1" d="M77717.21 48320.98c550.32,2.86 1027.2,-48.26 1378.17,-104.25 396.77,-62.95 733.43,-301.86 925.14,-654.75 1778.75,-3271.93 1613.74,-9119.73 1460.18,-11481.79 -34.31,-515.22 -358.6,-952.51 -826.88,-1113.79 -397.72,-136.66 -799.25,-211.91 -1120.66,-253.21 76.3,7363.02 -1182.66,11834 -1815.95,13607.78zm68.67 1311.68c-343.35,0 -711.5,-18.88 -1092.98,-67.14 -208.89,-26.23 -392,-151.08 -493.08,-335.81 -101.12,-184.64 -106.83,-406.4 -16.22,-596.39 20.98,-46.54 2238.45,-4874.6 2026.7,-14611.69 -4.77,-175.58 62.96,-345.15 185.04,-471.04 122.08,-126 289.94,-197.71 465.42,-198.77 46.72,0 1123.51,-3.14 2220.32,374.35 969.96,334 1640.45,1224.52 1708.16,2269.07 161.18,2475.74 325.22,8620.43 -1615.66,12192.8 -388.17,713.59 -1070.09,1196.29 -1871.25,1323.99 -389.13,62.28 -914.63,120.65 -1516.45,120.65z"/>
   <path class="fil4" d="M74206.47 51204.64c1017.66,-192.76 1878.89,-853.81 2332.86,-1781.12 504.54,-1026.62 901.29,-2186.47 1215.08,-3405.55l0 -2.1c1123.51,-4359 1171.21,-9483.78 1111.12,-12008.15 -28.62,-1215.17 -722.93,-2329.25 -1819.76,-2854.28 -619.92,-295.95 -1254.17,-490.43 -1801.62,-615.27 -899.38,-203.62 -1568.92,-224.9 -1568.92,-224.9 0,0 1649.99,13881.99 -3312.35,21284.88 -739.17,1102.54 2790.66,-195.52 3843.59,-393.52z"/>
   <path class="fil3" d="M73772.52 30404.94c134.47,1280.88 1361.94,14229.99 -3338.11,21241.47 -75.36,113.31 -103,200.09 -75.36,238.52 177.4,243.79 1737.74,-197.6 2670.5,-461.7 478.78,-135.72 893.66,-252.83 1161.67,-303.29 980.46,-185.69 1829.28,-834.24 2270.88,-1734.58 466.38,-950.03 872.67,-2086.52 1206.48,-3378.17l2.87 -12.99c1110.15,-4309.68 1170.24,-9358.54 1108.25,-11984.4 -28.62,-1205.07 -707.68,-2269.83 -1771.11,-2778.75 -538.88,-257.02 -1138.78,-461.99 -1783.52,-608.57 -681.92,-154.61 -1235.1,-203.25 -1452.55,-217.55zm-3128.28 21716.81c-210.79,0 -355.76,-40.91 -424.43,-135.34 -114.45,-157.74 25.75,-367.28 71.54,-436.23 4887.94,-7291.31 3315.21,-21088.31 3298.04,-21226.79l-11.44 -99.67 100.15 3.16c6.67,0.36 688.61,24.12 1585.13,227.37 657.13,149.34 1269.44,358.5 1819.76,621.16 1122.54,537.35 1837.87,1659.71 1868.38,2930.19 62.95,2632.83 2.87,7693.59 -1110.16,12021.14l-2.86 12.97c-336.68,1307.49 -747.74,2458.65 -1221.74,3421.94 -464.48,948.59 -1360.06,1632.05 -2393.93,1827.57l0 0.38c-260.36,49.03 -671.43,165.1 -1146.39,299.39 -1072.96,303.67 -1934.21,532.76 -2432.05,532.76z"/>
   <path class="fil5" d="M72311.37 51032.57c1272.31,-2358.99 2498.83,-5427.67 3273.27,-9293.21 -121.12,1082.32 -270.86,2025.65 -414.87,2794.87 -197.43,1056.27 646.64,1880.02 1559.36,1880.02 23.85,0 47.7,-0.29 72.5,-1.72 -49.59,211.26 -100.15,421.56 -154.51,629.65l0.94 2.01c-147.83,570.64 -312.81,1128.48 -498.81,1665.43 -63.89,144.41 -129.7,285.75 -198.38,425 -363.38,740.1 -1060.57,1272.86 -1864.57,1425 -292.79,55.21 -716.27,175.29 -1206.49,314.06 -156.42,44.44 -353.84,100.43 -568.44,158.88z"/>
   <path class="fil1" d="M74407.72 31048.53c265.13,3023.19 856.47,13597.96 -3068.21,20229.55 515.98,-114.36 1154.04,-294.91 1540.3,-404.39 490.23,-138.77 913.7,-258.85 1206.49,-314.06 804,-152.14 1501.19,-684.9 1864.57,-1425 2254.65,-4595.92 2330.97,-12098.76 2259.42,-15111.55 -23.83,-988.84 -578.92,-1862.2 -1447.78,-2279.17 -852.65,-408.6 -1746.3,-603.45 -2354.8,-695.38zm-3761.58 21641.96c-410.12,0 -698.14,-109.4 -887.94,-369.29 -103.96,-144.12 -308.06,-539.06 60.09,-1088.62 4767.79,-7113.23 3221.76,-20705.94 3205.54,-20842.33 -22.89,-189.6 38.16,-379.88 167.86,-520.55 128.75,-140.87 313.79,-219.95 503.58,-212.31 77.25,2.48 1893.19,68.95 3633.78,903.86 1317.12,631.39 2156.42,1945.83 2192.66,3430.74 74.4,3108.93 -10.48,10864.69 -2393.9,15720.41 -543.65,1109.22 -1589.9,1907.78 -2797.35,2136.22 -235.58,44.43 -652.36,162.21 -1093,287.16 -1161.67,328.76 -2001.91,554.71 -2591.33,554.71z"/>
   <path class="fil6" d="M68504.02 41427.67c-334.78,5763.89 -1751.85,10442.95 -4474.51,13995.39 -1815.08,2367.39 -4211.07,4233.78 -7250.1,5588.86l-2.1 2.1c-3966.93,1767.86 -9030.08,2667.16 -15337.79,2667.16 -7071.27,0 -12582.5,-1127.33 -16734.15,-3350.99 -1751.38,-936.39 -3262.5,-2067.53 -4545.85,-3391.81 -3584.94,-3695.87 -5400.02,-8886.73 -5784.09,-15510.71 -841.87,-14617.22 11915.16,-24876.87 27064.1,-24876.87 15148.94,0 27905.69,10259.65 27064.49,24876.87z"/>
   <path class="fil3" d="M41439.53 16636.63c-8300.84,0 -15969.54,3080.51 -21040.04,8451.54 -4241.12,4492.63 -6294.74,10141 -5937.93,16334.64 394.84,6811.38 2278.79,11866.9 5759.87,15455.39 1276.78,1317.97 2799.05,2453.7 4524.57,3376.16 4197.07,2247.7 9657.55,3340.41 16693.53,3340.41 6273.74,0 11275.01,-867.81 15288.48,-2653.14l16.1 -8.38c2976.66,-1327.43 5404.5,-3198.78 7216.82,-5563.02 2655.23,-3463.53 4112.93,-8025.88 4456.29,-13947.41 356.7,-6193.63 -1696.53,-11842.01 -5937.66,-16334.64 -5070.5,-5371.03 -12739.18,-8451.54 -21040.04,-8451.54zm0 47130.56c-7064.97,0 -12552.08,-1099.38 -16774.69,-3361.09 -1741.26,-930.76 -3277.84,-2077.36 -4567.6,-3407.92 -3510.74,-3619.29 -5410.41,-8711.14 -5807.83,-15565.16 -359.55,-6242.65 1710.17,-11935.48 5984.56,-16463.38 5103.04,-5405.37 12817.51,-8505.63 21165.57,-8505.63 8348.05,0 16062.54,3100.26 21165.66,8505.63 4274.6,4527.9 6344.24,10220.73 5984.67,16463.38l0 0c-346.22,5956.83 -1815.26,10550.25 -4491.87,14042.22 -1826.9,2383.02 -4272.99,4270.1 -7268.89,5609.06l-16.4 8.51c-4038.64,1799.62 -9067.17,2674.39 -15373.16,2674.39z"/>
   <path class="fil7" d="M41439.53 63024.62c-8937.36,0 -15376.6,-1795.06 -19686.68,-5487.49 -594.66,-509.58 -1149.75,-1056.66 -1664.67,-1641.87 -22.69,-89.18 -45.11,-179.78 -66.76,-271.44 -4.19,-53.5 -8.38,-108.73 -12.59,-165.48 300.81,-15.36 601.63,-32.14 902.44,-49.59 1110.92,1014.3 2373.3,1902.44 3794.76,2662.48 4151.67,2223.27 9661.18,3351.37 16733.5,3351.37 6307.33,0 11370.57,-898.62 15338.46,-2667.16l2.48 -2.1c3220.89,-1436.25 5717.62,-3448.18 7567.7,-6020.81 -37.11,425.28 -81.17,857.98 -132.67,1295.57 -871.91,1323.61 -1901.01,2490.81 -3089.28,3509.02 -4310.09,3692.42 -10749.31,5487.49 -19686.69,5487.49z"/>
   <path class="fil7" d="M19919.27 54426.49c-61.23,-65.42 -121.79,-131.91 -181.88,-198.29 -544.68,-3211.08 -631.37,-7962.27 1302.25,-13938.72 2129.52,-6582.2 8089.11,-8896.09 14398.63,-11345.98 5547.56,-2154.33 11267.95,-4375.5 14226.47,-9737 819.18,2128.11 2890.34,5888.63 7954.15,9366.19 3407.27,2340.11 6210.15,7130.41 7497.71,12814.83 673.34,2972.45 978.39,5863.17 768.49,8792.7 -431.57,846.15 -996.92,1801.62 -1536.93,2552.32 1148.3,-13173.74 -4483.57,-20269.14 -8491.77,-23204.57 -5046.77,-3699.97 -6437.9,-6862.8 -6437.9,-6862.8 -10164.09,9898.67 -21888.59,8329.84 -25937.74,15376.6 -3413.16,5942.9 -3681.08,12785.08 -3530.67,16383 -10.59,0.67 -20.69,1.05 -30.8,1.72z"/>
   <path class="fil8" d="M20021.42 55623.82c-12.97,-54.18 -25.94,-108.73 -38.54,-164.05 8.78,-0.67 17.18,-1.05 25.94,-1.43 4.21,56.75 8.4,111.98 12.59,165.48zm-248.08 -1189.98c-12.2,-67.82 -24.03,-136.01 -35.95,-205.64 60.09,66.38 120.65,132.86 181.88,198.29 -48.64,2.48 -97.27,4.86 -145.93,7.35zm44442.15 -405.73c51.49,-437.58 95.56,-870.29 132.67,-1295.57 540.01,-750.7 1071.28,-1646.43 1502.84,-2492.6 -21.27,297.66 92.37,486.04 61.93,781.23 -437.19,1002.19 -1126.52,2140.84 -1697.44,3006.93z"/>
   <path class="fil1" d="M41439.53 17206.97c-8144.8,0 -15662.72,3016.03 -20626.21,8273.67 -4130.29,4375.41 -6129.64,9876.91 -5781.62,15909.27 424.23,7353.97 2622.71,12636.1 6721.15,16147.23 4310.08,3692.42 10749.31,5487.49 19686.68,5487.49 8937.38,0 15376.6,-1795.06 19686.69,-5487.49 4098.14,-3511.12 6297.2,-8793.26 6721.61,-16147.23 347.17,-6032.35 -1651.78,-11533.86 -5782.07,-15909.27 -4963.5,-5257.64 -12481.41,-8273.67 -20626.23,-8273.67zm0 47129.33c-18009.52,0 -26817.08,-7267.45 -27717.43,-22871.14 -369.09,-6401.46 1753.09,-12240.1 6137.37,-16884.85 5210.03,-5519.34 13075.69,-8684.73 21580.06,-8684.73 8504.38,0 16370.03,3165.39 21580.06,8684.73 4383.81,4644.75 6506.84,10483.39 6137.74,16884.85 -900.33,15603.7 -9708.28,22871.14 -27717.8,22871.14z"/>
   <path class="fil1" d="M32928.86 43711.52c0,2464.19 -1630.04,4462.2 -3640.93,4462.2 -2010.59,0 -3640.54,-1998.01 -3640.54,-4462.2 0,-2464.68 1629.95,-4462.29 3640.54,-4462.29 2010.89,0 3640.93,1997.61 3640.93,4462.29z"/>
   <path class="fil1" d="M29287.93 39335.35c-1959.85,0 -3554.14,1963.29 -3554.14,4376.17 0,2412.79 1594.28,4375.79 3554.14,4375.79 1960.25,0 3554.52,-1963 3554.52,-4375.79 0,-2412.88 -1594.27,-4376.17 -3554.52,-4376.17zm0 8924.41c-2054.94,0 -3726.95,-2040.25 -3726.95,-4548.24 0,-2507.97 1672.01,-4548.62 3726.95,-4548.62 2055.33,0 3727.35,2040.65 3727.35,4548.62 0,2507.98 -1672.01,4548.24 -3727.35,4548.24z"/>
   <path class="fil1" d="M30106.82 41468.3c-161.27,-40.92 -276.39,-77.25 -407.92,-122.08 -124.84,-46.54 -252.16,-88.13 -373.19,-142.3 -245.21,-100.15 -484.79,-211.35 -717.4,-339.73 -235.39,-119.21 -460.67,-263.33 -682.8,-409.53 -110.15,-76.3 -221.74,-148.02 -328.37,-229.2l-315.21 -251.4c-409.92,-350.5 -787.03,-749.65 -1092.71,-1204.02 -290.32,-464.56 -472.58,-1030.8 -357.84,-1593.98l1165.1 860.46c352.6,258.18 735.24,468.39 1128.75,657.33 394.94,188.17 811.15,342.39 1228.14,486.89 103.58,37 208.78,70.95 314.82,102.42 104.26,36.04 209.54,68.96 315.12,99.39l313.79 94.42 288.89 82.87 33.57 9.83c522.28,150.03 823.75,694.62 673.34,1216.88 -146.87,511.4 -674.39,810.5 -1186.08,681.74z"/>
   <path class="fil9" d="M31812.32 43244.56c0,874.02 -578.16,1582.36 -1291.37,1582.36 -712.83,0 -1291.1,-708.34 -1291.1,-1582.36 0,-874.21 578.27,-1582.83 1291.1,-1582.83 713.21,0 1291.37,708.63 1291.37,1582.83z"/>
   <path class="fil1" d="M30520.94 41748.14c-664.29,0 -1205.07,671.24 -1205.07,1496.42 0,825.08 540.78,1496.34 1205.07,1496.34 664.56,0 1205.05,-671.26 1205.05,-1496.34 0,-825.17 -540.49,-1496.42 -1205.05,-1496.42zm0 3165.19c-759.37,0 -1377.41,-748.5 -1377.41,-1668.77 0,-920.35 618.03,-1668.87 1377.41,-1668.87 759.75,0 1377.77,748.51 1377.77,1668.87 0,920.28 -618.02,1668.77 -1377.77,1668.77z"/>
   <path class="fil1" d="M49950.2 43711.52c0,2464.19 1630.04,4462.2 3640.93,4462.2 2010.6,0 3640.55,-1998.01 3640.55,-4462.2 0,-2464.68 -1629.95,-4462.29 -3640.55,-4462.29 -2010.89,0 -3640.93,1997.61 -3640.93,4462.29z"/>
   <path class="fil1" d="M53591.13 39335.35c-1960.23,0 -3554.52,1963.29 -3554.52,4376.17 0,2412.79 1594.28,4375.79 3554.52,4375.79 1959.85,0 3554.24,-1963 3554.24,-4375.79 0,-2412.88 -1594.39,-4376.17 -3554.24,-4376.17zm0 8924.41c-2055.32,0 -3727.33,-2040.25 -3727.33,-4548.24 0,-2507.97 1672.01,-4548.62 3727.33,-4548.62 2054.94,0 3726.97,2040.65 3726.97,4548.62 0,2507.98 -1672.03,4548.24 -3726.97,4548.24z"/>
   <path class="fil1" d="M52293.09 39559.85l288.89 -82.87 313.77 -94.42c105.67,-30.42 210.97,-63.34 315.12,-99.39 106.05,-31.47 211.35,-65.42 315.21,-102.42 416.59,-144.5 832.8,-298.72 1227.76,-486.89 393.52,-188.94 776.14,-399.15 1128.75,-657.33l1165.1 -860.46c114.73,563.18 -67.53,1129.42 -357.85,1593.98 -305.68,454.37 -682.79,853.52 -1092.71,1204.02l-315.12 251.4c-106.72,81.17 -218.3,152.9 -328.08,229.2 -222.51,146.2 -447.79,290.32 -683.18,409.53 -232.6,128.38 -472.18,239.59 -717.4,339.73 -121.02,54.17 -248.35,95.76 -373.19,142.3 -131.53,44.82 -246.65,81.16 -407.92,122.08 -526.38,133.24 -1061.24,-185.69 -1194.48,-712.15 -130.46,-515.99 172.83,-1039.59 680.02,-1186.19l35.3 -10.12z"/>
   <path class="fil9" d="M51066.74 43244.56c0,874.02 578.18,1582.36 1291.39,1582.36 712.82,0 1291.09,-708.34 1291.09,-1582.36 0,-874.21 -578.27,-1582.83 -1291.09,-1582.83 -713.21,0 -1291.39,708.63 -1291.39,1582.83z"/>
   <path class="fil1" d="M52358.13 41748.14c-664.58,0 -1205.07,671.24 -1205.07,1496.42 0,825.08 540.49,1496.34 1205.07,1496.34 664.27,0 1205.05,-671.26 1205.05,-1496.34 0,-825.17 -540.78,-1496.42 -1205.05,-1496.42zm0 3165.19c-759.75,0 -1377.79,-748.5 -1377.79,-1668.77 0,-920.35 618.03,-1668.87 1377.79,-1668.87 759.36,0 1377.48,748.51 1377.48,1668.87 0,920.28 -618.13,1668.77 -1377.48,1668.77z"/>
   <polygon class="fil7" points="49339.41,52829.72 49339.81,52829.44 "/>
   <path class="fil7" d="M33587.91 53115.18c-18.23,-98.34 -33.95,-191.71 -47.59,-279.46 -0.67,-3.9 -1.05,-7.72 -1.73,-11.62 0.68,3.9 1.06,7.72 1.73,11.62 13.64,87.75 29.36,181.12 47.59,279.46zm-49.32 -291.08c0,-1.35 -0.36,-2.78 -0.76,-4.21 0.39,1.43 0.76,2.86 0.76,4.21zm-0.76 -5.54c-0.27,-1.05 -0.27,-2.1 -0.27,-3.14 0,1.05 0,2.1 0.27,3.14zm-0.67 -6c-0.36,-0.67 -0.36,-1.34 -0.36,-2.11 0,0.77 0,1.44 0.36,2.11zm-1.05 -5.91c0,-0.39 0,-0.68 0,-0.68 0,0 0,0.29 0,0.68z"/>
   <path class="fil0" d="M70837.83 52261c-3010.02,4786.11 -6303.3,6679.19 -6420.14,6742.8 0,-6.29 2.2,-8 3.92,-14.29 4827.3,-11085.79 868.48,-25943.07 -6430.84,-30957.21 -7303.22,-5015.95 -8184.29,-10647.92 -8184.29,-10647.92 -5192.69,12803.97 -25035.3,9239.33 -29390.2,22702.62 -3860.19,11925.28 16.5,19226.69 948.59,20738.19 34.72,53.12 63.71,98.32 88.22,137.44 12.21,18.59 22.31,32.9 32.92,47.21 34.89,55.59 59.41,90.23 67.81,102.51 -3874.61,-2523.33 -6550.15,-5853.71 -8398.02,-9190.3 -3813.09,-6888.73 -4092.15,-13814.18 -4092.15,-13814.18 -3431.01,2112.75 -5278.9,923.82 -5278.9,923.82 897.19,-821.27 1829.39,-2667.16 2632.25,-4617.85 1155.84,-2802.5 1991.8,-5726.4 2585.13,-8701.71 49.31,-246.27 100.72,-492.81 155.94,-734.86 2451.71,-10962.47 10851.45,-19582.44 21639.19,-22715.5 13492.37,-3918 19582.14,603.73 19582.14,603.73 9898.95,197.42 16052.43,5410.61 19729.78,10576.11 3221.77,4521.7 5063.45,9880.42 5488.82,15416.17 860.28,11247.82 -1813.08,18715.38 -4760.16,23403.24z"/>
   <path class="fil0" d="M16135.29 53493.62c-326.36,-131.13 -666,-180.15 -992,-180.15 -123.89,0 -245.97,6.96 -364.14,19.64 -762.52,-1170.83 -1403.34,-2346.41 -1939.92,-3480.42 -1775.48,-13275.77 2277.47,-20604.84 4717.9,-23693.46 44.46,-55.97 100.43,-79.44 155.36,-79.44 139.84,0 272.4,152.5 183.23,310.64 -20.99,37 -31.78,56.95 -31.78,56.95l0 0c-245.59,309.58 -458.27,635.94 -674.77,962.32 -105.28,164.43 -209.16,330.18 -310.25,497.38 -102.53,166.8 -201.54,335.43 -284.7,511.4 -177,346.67 -342.12,699.56 -505.87,1053.88 -78.67,178.45 -160.51,355.36 -235.38,535.52l-198.66 549.83 -388.28 1103.96c-122.75,370.44 -222.5,748.22 -334.76,1122.09 -236.43,745.73 -395.23,1511.78 -576.07,2273.24 -308.15,1532.77 -558.6,3086.24 -624.79,4655.73 -86.31,1566.34 -73.35,3143.17 90.33,4707.03 159.46,1563.57 430.88,3116.65 816.4,4641.7 387.5,1512.82 897.57,2992.47 1498.15,4432.14z"/>
   <path class="fil0" d="M18423.9 54323.68c-1240.73,-4077.48 -1918.95,-9649.54 238.9,-15754 4921.14,-13918.81 22817.27,-9055.66 31125.45,-25533.44 84.59,-167.86 244.83,-249.88 404.01,-249.88 181.49,0 362.04,105.87 429.18,309.97 688.04,2075.34 2642.26,6732.01 7420.73,11459.73 5622.16,5564.47 12717.46,15074.08 8767.42,28482.82 615.74,-3829.1 488.89,-7954.44 -413.83,-11941.03 -1378.46,-6087.67 -4306.93,-11046.95 -8034.19,-13606.33 -6951.38,-4774.27 -7898.55,-10156.75 -7907.32,-10210.16 -46.16,-290.9 -279.82,-515.03 -572.24,-548.41 -25.56,-2.87 -51.13,-4.77 -76.59,-4.77 -263.81,0 -505.11,160.24 -606.58,409.15 -2432.74,6000.41 -8165.81,8226.46 -14235.63,10583.26 -6317.54,2453.04 -12850.13,4989.72 -15171.66,12164.95 -1985.02,6135.26 -1922.74,11057.07 -1367.66,14438.12z"/>
   <path class="fil0" d="M5296.9 38714.84c-129.61,0 -248.46,-6.68 -356.41,-17.94 48.83,-67.14 97.85,-136.75 147.16,-208.48 1293.47,-668.77 3294.91,-2060.58 4797.25,-4735.74 0,0 60.85,1762.24 -594.95,3739.25 -73.17,-26.61 -149.74,-39.86 -225.95,-39.86 -119.31,0 -238.63,32.52 -343.92,97.18 -1513.51,931.53 -2656.86,1165.57 -3423.19,1165.57z"/>
   <path class="fil0" d="M65817.23 57161.45c106.72,-325.98 207.43,-656.18 301.85,-989.13 2717.81,-5257.73 6939.09,-17269.31 -1221.08,-31330.79 0,0 -1028.05,-1610.4 -1969.3,-2893.48 -74.87,-102.04 9.83,-224.5 112.27,-224.5 27.27,0 55.97,8.78 82.87,28.71 2527.91,1869.63 10849.93,9592.88 8010.61,28699.59 -324.27,600.29 -652.35,1151.17 -975.67,1655.23 -1546.98,2413.55 -3165.5,4050.94 -4341.55,5054.38z"/>
   <path class="fil0" d="M73717.21 22312.96c-899.39,-2410.41 -2103.03,-4705.4 -3608.05,-6817.96 -3653.89,-5133.07 -10180.96,-10418.73 -19975.37,-10679.11 -115.78,-2.86 -229.09,-36.24 -325.22,-101.09 -621.27,-414.89 -3372.64,-2018.14 -8727.93,-2018.14 -887.38,0 -1846.84,44.82 -2879.46,144.97 -288.51,28.62 -563.85,155.45 -749.56,378.63 -537.62,645.68 -2162.71,1396.29 -4167.01,1862.67 -1135.44,264.19 -2201.53,392.94 -3052.27,392.94 -602.97,0 -1097.59,-64.86 -1431.95,-191.69 -132.59,-50.55 -271.83,-76.3 -411.08,-76.3 -138.86,0 -277.07,25.75 -408.21,77.24 -6870.12,2726.78 -12751.12,7842.68 -16325.19,14246.32 3568.16,-7950.63 10585.16,-14101.35 19323.58,-16639.28 3989.71,-1158.8 7318.58,-1561.28 10017.59,-1561.28 6068.03,0 8951.4,2032.44 8990.89,2061.05 109.11,81.07 241.38,125.91 377.77,128.76 7992.31,160.24 14454.91,3625.19 19209.34,10300.46 1824.5,2562.73 3218.89,5432.16 4142.13,8491.79z"/>
   <path class="fil1" d="M9064.01 37452.08c105.58,0 211.64,25.55 308.15,76.97 205.62,109.11 337.91,319.32 347.26,551.93 1.43,37.38 173.86,3808.5 1771.02,8454.39 1269.06,3689.86 3691.28,8608.52 8203.17,12386.6 -340.67,-841.97 -691.17,-1884.69 -978.35,-3121.52 -776.54,-3342.5 -1220.04,-8817 1076.29,-15914.89 2321.53,-7175.23 8854.12,-9711.91 15171.66,-12164.95 6069.82,-2356.8 11802.89,-4582.85 14235.63,-10583.26 110.91,-272.76 390.74,-438.72 683.17,-404.38 292.41,33.37 526.08,257.51 572.24,548.41 8.78,53.41 955.94,5435.89 7907.32,10210.16 3727.25,2559.37 6655.73,7518.65 8034.19,13606.33 1238.44,5467.94 1017.17,11196.06 -578.54,16063.59 1176.05,-1003.44 2794.57,-2640.83 4341.55,-5054.38 2673.34,-4170.17 5672.87,-11580.02 4783.99,-23198.86 -422.51,-5532.29 -2279.46,-10749.01 -5367.68,-15087.04 -4754.44,-6675.27 -11217.03,-10140.23 -19209.34,-10300.46 -136.39,-2.86 -268.66,-47.7 -377.77,-128.76 -57.33,-41.95 -6049.24,-4264.19 -19008.48,-499.77 -10693.99,3105.41 -18810.48,11623.32 -21181.3,22227.76 -53.6,238.23 -104.25,478.58 -152.88,721.7 -632.05,3165.48 -1513.89,6134.12 -2621.66,8822.92 -743.64,1805.34 -1431.29,3137.26 -2083.16,4032.34 746.49,76.98 2010.01,-58.74 3779.6,-1147.63 105.29,-64.66 224.61,-97.18 343.92,-97.18zm12494.66 24322.36c-123.42,0 -247.59,-34.62 -357.08,-105.96 -6293.02,-4102.25 -9436.19,-10283.39 -10965.14,-14746.26 -1159.86,-3386.66 -1588.76,-6273.47 -1743.64,-7746.44 -3174.53,1576.83 -4981.22,460.37 -5063.35,407.54 -171.2,-109.88 -281.63,-293.17 -298.72,-496.05 -17.26,-202.86 60.67,-402.19 210.88,-539.72 485.55,-443.89 1308.16,-1564.53 2469.16,-4382.47 1075.44,-2610.79 1932.75,-5497.59 2548.02,-8580.59 50.75,-252.92 103.58,-502.99 158.79,-750.69 2475.75,-11071.77 10942.74,-19962.59 22096.05,-23201.52 12541.29,-3642.36 18834.98,-157.36 19974.23,581.78 10382.68,277.54 16633.35,6042 20055.4,10846.97 3227.47,4531.25 5166.45,9977.06 5608.03,15746.75 919.41,12032 -2230.82,19737.41 -5036.73,24082.79 -3068.21,4752.52 -6343.19,6612.7 -6481.01,6689.29 -245.87,137.15 -551.55,101.86 -760.04,-87.07 -208.48,-189.22 -272.87,-490.05 -160.22,-748.13 245.18,-561.76 457.45,-1143.94 670.89,-1732.22 145.93,-402.24 280.46,-811.64 403.68,-1227.41 1304.12,-4400.64 1341.2,-9515.19 228.72,-14397.51 -1287.56,-5684.42 -4090.44,-10474.72 -7497.71,-12814.83 -5063.82,-3477.57 -7134.98,-7238.09 -7954.15,-9366.19 -2958.52,5361.5 -8678.91,7582.68 -14226.47,9737 -6309.52,2449.88 -12269.11,4763.78 -14398.63,11345.98 -2191.13,6772.27 -1788.18,11970.47 -1064.11,15138.44 783.89,3430.05 2102.26,5288.43 2115.52,5306.65 184.36,256.35 160.61,608.3 -57.31,836.72 -128,133.62 -300.83,203.15 -475.07,203.15z"/>
   <path class="fil1" d="M21077.4 61563.56c-149.34,-162.98 -273.91,-307.77 -404,-463.13 -128.37,-152.5 -253.61,-306.34 -376.06,-462.1 -245.49,-310.63 -484.79,-623.94 -712.45,-945.45 -454.08,-643.58 -892.04,-1297.68 -1293.85,-1973.11 -814.31,-1344.31 -1535.24,-2745.17 -2142.89,-4194.67 -606.1,-1449.89 -1120.64,-2939.93 -1511.02,-4463.63 -385.51,-1525.05 -656.93,-3078.13 -816.4,-4641.7 -163.68,-1563.86 -176.64,-3140.69 -90.33,-4707.03 66.2,-1569.5 316.64,-3122.97 624.79,-4655.73 180.83,-761.47 339.64,-1527.51 576.07,-2273.24 112.27,-373.86 212.02,-751.64 334.76,-1122.09l388.28 -1103.96 198.66 -549.83c74.87,-180.16 156.71,-357.08 235.38,-535.52 163.76,-354.33 328.87,-707.21 505.87,-1053.88 83.16,-175.97 182.17,-344.61 284.7,-511.4 101.09,-167.21 204.97,-332.96 310.25,-497.38 216.89,-326.38 429.47,-653.41 674.77,-961.58 -75.61,391.42 -183.29,764.34 -287.16,1137.15 -54.94,185.4 -111.6,369.4 -170.72,551.94l-90.23 272.87 -80.49 276.3c-105.6,368.73 -223.47,731.42 -343.18,1092.8l-186.06 538.96 -167.59 544.59 -343.83 1085.46c-108.42,363.38 -193.41,733.43 -291.37,1099.67 -207.06,729.71 -336.86,1476.79 -489.36,2217.65 -249.69,1491.57 -444.16,2993.16 -479.54,4502.45 -49.32,1506.91 -4.19,3017.95 186.06,4512.66 173.22,1495.28 452.29,2978.35 840.55,4433.21 396.28,1452.64 884.31,2880.49 1475.44,4266.29 591.44,1384.85 1258.85,2739.95 2034.74,4031.7 380.15,650.16 795.04,1279.16 1223.17,1896.13 215.45,307.5 432.99,613.55 659.32,910.56 112.36,149.74 226.72,296.61 342.78,441.11 114.07,142.68 237.87,291.66 345.26,414.78l13.35 15.07c238.14,272.87 209.81,686.98 -62.66,925.14 -268.67,234.71 -675.45,210.3 -915.04,-51.04z"/>
   <path class="fil1" d="M63899.04 58601.22c94.42,-125.22 204.59,-279.15 304.63,-426.04 102.44,-148.3 202.2,-300.44 300.44,-453.7 197.71,-306.06 385.12,-620.51 570.92,-936 367.95,-634.15 713.88,-1283.37 1032.53,-1946.23 641.58,-1324.27 1166.14,-2704.25 1616.31,-4106.17 886.02,-2808.78 1381.98,-5749.48 1404.87,-8703.03l11.44 -553.74c1.91,-184.66 -9.54,-369 -12.39,-553.66 -13.35,-369 -14.29,-739.16 -38.14,-1107.78l-84.89 -1106.05 -21.93 -276.31 -35.29 -275.34 -70.57 -550.5c-76.31,-737.06 -231.78,-1462.09 -352.9,-2193.91 -73.43,-363.09 -163.08,-723.31 -243.2,-1085.36l-123.99 -542.88c-41.95,-180.83 -98.23,-357.85 -146.87,-536.97l-303.29 -1072.39c-104.91,-356.8 -234.63,-705.5 -350.99,-1058.85l-179.3 -528.48 -88.69 -264.47 -103.02 -259.51c-139.05,-345.26 -272.4,-693.28 -404.95,-1041.69 -259.51,-699.57 -575.02,-1376.07 -838.06,-2079.46 -285.08,-693.65 -591.8,-1378.93 -843.4,-2100.52 229.85,301.94 447.12,612.49 660.46,926.26 108.45,156.04 211.26,315.5 315.9,473.93 103.47,159.17 212.58,315.5 300.42,483.45 186.07,329.81 373.59,659.99 550.23,996.19l268.95 501.96c86.79,169.27 158.32,345.24 238.45,517.69 155.45,345.93 311.87,692.51 461.61,1041.96l113.48 261.61 100.15 266.58 201.25 534.1c130.66,357.18 274.67,709.78 393.9,1071.05l347.16 1088.62c55.32,182.15 120.18,361.94 168.82,546.02l145.93 552.98c94.42,369.38 198.38,736.57 286.13,1108.07 152.59,747.54 330.95,1491.56 430.14,2250.17l87.74 566.72 42.93 283.26 30.52 285.17 118.27 1141.63c34.33,381.32 45.78,764.34 69.63,1146.31 8.58,191.33 23.83,382.26 26.7,573.95l3.81 574.36c15.25,1531.99 -88.69,3067.63 -314.73,4585.04 -221.27,1518.35 -553.19,3021.07 -993.81,4492.25 -436.82,1472.57 -997.62,2907.78 -1657.61,4296.44 -330.01,694.33 -689.76,1375.68 -1074.12,2044.17 -193.42,333.99 -397.04,662.46 -608.97,987.51 -106.05,162.6 -213.73,324.18 -325.98,484.41 -113.41,163.36 -222.51,314.82 -356.14,488.6l-1030.43 -811.46z"/>
   <path class="fil1" d="M3877.05 46757.79c355.36,471.82 578.56,966.8 773.01,1468.76 202.39,498.83 383.11,1002.5 575.2,1501.29 378.36,998.96 909.69,1936.4 1557.75,2739.17 326,399.81 689.09,761.47 1094.15,1045.21l151.74 105.87 157.46 93.84c109.78,66.77 198.29,114.35 310.25,159.75 216.13,92.03 459.24,166.25 708.64,228.44 1008.79,243.49 2101.59,336.19 3184.18,398.76 2175.97,111.69 4376.46,64.75 6571.79,-27.28 1097.95,-47.21 2196.29,-110.53 3293.86,-185.02 548.5,-39.49 1098.33,-66.48 1643.01,-154.22 272.77,-36.71 547.74,-46.16 825.48,-26.61 278.11,25.56 559.28,84.99 851.41,260.27l33.57 343.44c-257.13,227.77 -525.8,336.21 -797.91,409.27 -272.47,67.14 -547.45,103.18 -825.17,110.25 -555.76,0 -1107.02,54.18 -1660.09,90.23 -1105.3,75.16 -2211.65,138.86 -3319.43,186.74 -2216.22,92.32 -4436.73,140.97 -6672.5,26.23 -558.99,-30.71 -1119.03,-71.73 -1681.47,-137.06 -562.79,-65.42 -1126.66,-149.07 -1697.47,-290.7 -285.84,-72.11 -573.01,-157.09 -865.05,-281.27 -144.12,-58.09 -300.15,-140.58 -425.66,-217.55l-197.72 -118.93 -188.17 -130.46c-499.48,-351.56 -924.09,-778.65 -1295.48,-1233.4 -372.05,-455.41 -693.47,-940.59 -978.64,-1440.35 -280.51,-502.34 -537.82,-1012.69 -779.79,-1529.33 -241.86,-516.25 -439.39,-1051.41 -579.21,-1601.62 -142.69,-549.56 -223.27,-1117.23 -105.67,-1723.7l337.91 -70.01z"/>
   <path class="fil1" d="M27271.81 54577.65c-22.04,927.9 -792.27,1662.11 -1719.99,1640.07 -927.9,-22.31 -1662.09,-792.29 -1640.16,-1720.18 22.42,-927.63 792.37,-1661.82 1720.27,-1639.87 927.63,22.12 1661.91,792.27 1639.88,1719.98z"/>
   <path class="fil10" d="M7767.67 61582.73c-120.74,-88.78 -241,-182.53 -361,-280.78 120,98.25 240.25,191.62 360.62,280.11 0,0.39 0.38,0.39 0.38,0.67z"/>
  </g>
 </g>
</svg>
